<svg width="20" height="20" viewBox="0 0 20 20" fill="none" xmlns="http://www.w3.org/2000/svg">
<g clip-path="url(#clip0_1_3392)">
<path d="M18 20H2C0.895898 19.9989 0.00109375 19.1041 0 18V2C0.00109375 0.895899 0.895898 0.00109375 2 0H18C19.1041 0.00109375 19.9989 0.895899 20 2V18C19.9989 19.1041 19.1041 19.9989 18 20V20ZM19.3333 2C19.3333 1.26363 18.7364 0.666679 18 0.666679H2C1.26363 0.666679 0.66668 1.26363 0.66668 2V18C0.66668 18.7364 1.26363 19.3333 2 19.3333H18C18.7364 19.3333 19.3333 18.7364 19.3333 18V2Z" fill="#78C081"/>
<path d="M2.49999 16.3334C3.14433 16.3334 3.66667 16.8557 3.66667 17.5001C3.66667 18.1444 3.14433 18.6667 2.49999 18.6667C1.85566 18.6667 1.33331 18.1444 1.33331 17.5001C1.33331 16.8557 1.85566 16.3334 2.49999 16.3334ZM2.49999 18.0001C2.77613 18.0001 2.99999 17.7762 2.99999 17.5001C2.99999 17.2239 2.77613 17.0001 2.49999 17.0001C2.22386 17.0001 1.99999 17.2239 1.99999 17.5001C1.99999 17.7762 2.22386 18.0001 2.49999 18.0001Z" fill="#78C081"/>
<path d="M17.5 18.6667C16.8557 18.6667 16.3333 18.1444 16.3333 17.5001C16.3333 16.8557 16.8557 16.3334 17.5 16.3334C18.1443 16.3334 18.6667 16.8557 18.6667 17.5001C18.6667 17.8095 18.5437 18.1062 18.325 18.325C18.1062 18.5438 17.8094 18.6667 17.5 18.6667ZM17.5 17.0001C17.2239 17.0001 17 17.2239 17 17.5001C17 17.7762 17.2239 18.0001 17.5 18.0001C17.7761 18.0001 18 17.7762 18 17.5001C18 17.2239 17.7761 17.0001 17.5 17.0001Z" fill="#78C081"/>
<path d="M2.49999 3.66675C1.85566 3.66675 1.33331 3.1444 1.33331 2.50007C1.33331 1.85573 1.85566 1.33339 2.49999 1.33339C3.14433 1.33339 3.66667 1.85573 3.66667 2.50007C3.66667 3.1444 3.14433 3.66675 2.49999 3.66675ZM2.49999 2.00007C2.22386 2.00007 1.99999 2.22394 1.99999 2.50007C1.99999 2.7762 2.22386 3.00007 2.49999 3.00007C2.77613 3.00007 2.99999 2.7762 2.99999 2.50007C2.99999 2.22394 2.77613 2.00007 2.49999 2.00007Z" fill="#78C081"/>
<path d="M17.5 3.66675C16.8557 3.66675 16.3333 3.1444 16.3333 2.50007C16.3333 1.85573 16.8557 1.33339 17.5 1.33339C18.1443 1.33339 18.6667 1.85573 18.6667 2.50007C18.6667 3.1444 18.1443 3.66675 17.5 3.66675ZM17.5 2.00007C17.2239 2.00007 17 2.22394 17 2.50007C17 2.7762 17.2239 3.00007 17.5 3.00007C17.7761 3.00007 18 2.7762 18 2.50007C18 2.22394 17.7761 2.00007 17.5 2.00007Z" fill="#78C081"/>
<path d="M17.6497 14.3431L17.0497 15.3431C16.9287 15.5434 16.712 15.6661 16.478 15.6667H3.522C3.28801 15.666 3.07137 15.5433 2.95032 15.3431L2.35032 14.3431C2.22673 14.1371 2.22352 13.8806 2.34184 13.6716C2.46016 13.4626 2.6818 13.3334 2.922 13.3334H17.078C17.3182 13.3334 17.5398 13.4626 17.6582 13.6716C17.7765 13.8806 17.7732 14.1371 17.6497 14.3431ZM2.922 14.0001L3.522 15.0001H16.478L17.078 14.0001H2.922Z" fill="#78C081"/>
<path d="M17.6497 11.3431L17.0497 12.3431C16.9287 12.5434 16.712 12.6661 16.478 12.6667H3.522C3.28801 12.666 3.07137 12.5433 2.95032 12.3431L2.35032 11.3431C2.22673 11.1371 2.22352 10.8806 2.34184 10.6716C2.46016 10.4626 2.6818 10.3334 2.922 10.3334H17.078C17.3182 10.3334 17.5398 10.4626 17.6582 10.6716C17.7765 10.8806 17.7732 11.1371 17.6497 11.3431ZM2.922 11.0001L3.522 12.0001H16.478L17.078 11.0001H2.922Z" fill="#78C081"/>
<path d="M17.6497 8.34308L17.0497 9.34308C16.9287 9.54339 16.712 9.66608 16.478 9.66675H3.522C3.28801 9.66597 3.07137 9.54331 2.95032 9.34308L2.35032 8.34308C2.22673 8.13714 2.22352 7.88061 2.34184 7.67159C2.46016 7.46257 2.6818 7.33339 2.922 7.33339H17.078C17.3182 7.33339 17.5398 7.46257 17.6582 7.67159C17.7765 7.88061 17.7732 8.1371 17.6497 8.34308ZM2.922 8.00007L3.522 9.00007H16.478L17.078 8.00007H2.922Z" fill="#78C081"/>
<path d="M17.0493 6.34343C16.9284 6.54351 16.7118 6.66604 16.478 6.66675H3.522C3.28801 6.66597 3.07137 6.54331 2.95032 6.34308L2.35032 5.34308C2.22673 5.13714 2.22352 4.88062 2.34184 4.67159C2.46016 4.46257 2.6818 4.33339 2.922 4.33339H17.078C17.3182 4.33339 17.5398 4.46257 17.6582 4.67159C17.7765 4.88062 17.7733 5.1371 17.6497 5.34308L17.0493 6.34343ZM2.922 5.00011L3.522 6.00011H16.478L17.078 5.00011H2.922Z" fill="#78C081"/>
</g>
<defs>
<clipPath id="clip0_1_3392">
<rect width="20" height="20" fill="white" transform="matrix(1 0 0 -1 0 20)"/>
</clipPath>
</defs>
</svg>
