<svg width="450" height="496" viewBox="0 0 450 496" fill="none" xmlns="http://www.w3.org/2000/svg">
<path d="M5.03713 1.67658C53.7634 50.5 109.642 58.8882 124.632 63.6301M124.632 63.6301L119.907 57.0415M124.632 63.6301L116.857 67.1427" stroke="#78C081" stroke-width="2" stroke-linecap="round" stroke-linejoin="round"/>
<path d="M246.036 83.6765C299.536 83.6767 352.789 100.537 366.581 145.949C375.599 183.273 358.063 210.524 326.257 243.498M326.257 243.498L334.536 242.177M326.257 243.498L326.036 234.177" stroke="#78C081" stroke-width="2" stroke-linecap="round" stroke-linejoin="round"/>
<path d="M194.036 283.177C149.036 298.176 53.7457 337.985 49.4753 379.608C46.1538 411.982 66.0357 425.176 84.8456 426.416M84.8456 426.416L80.5357 420.177M84.8456 426.416L78.0357 430.177" stroke="#78C081" stroke-width="2" stroke-linecap="round" stroke-linejoin="round"/>
<path d="M203.036 454.352C242.752 475.307 308.464 487.231 347.697 486.185C370.133 485.587 414.444 484.107 445.86 449.365M445.86 449.365L448.036 457.677M445.86 449.365L437.124 447.357" stroke="#78C081" stroke-width="2" stroke-linecap="round" stroke-linejoin="round"/>
</svg>
