<svg width="280" height="301" viewBox="0 0 280 301" fill="none" xmlns="http://www.w3.org/2000/svg">
<g opacity="0.5" clip-path="url(#clip0_628_604)">
<path d="M223.834 63.3117L260.944 71.6217C262.544 71.9781 264.056 72.6496 265.392 73.5969C266.729 74.5441 267.863 75.7482 268.729 77.1385C269.594 78.5288 270.174 80.0775 270.433 81.694C270.692 83.3104 270.626 84.9622 270.239 86.5525L256.361 143.533C255.626 146.539 253.786 149.158 251.206 150.87C248.627 152.582 245.497 153.261 242.438 152.773C241.412 152.608 240.361 152.839 239.501 153.421C238.64 154.002 238.034 154.889 237.805 155.902L210.322 276.781C209.423 280.738 206.994 284.179 203.564 286.351C200.134 288.524 195.982 289.251 192.015 288.375L50.1821 256.988C49.6537 256.871 49.1535 256.651 48.7107 256.34C48.2678 256.029 47.891 255.634 47.6021 255.177C47.3133 254.719 47.118 254.209 47.0277 253.676C46.9374 253.143 46.9538 252.598 47.076 252.071L96.5184 42.7407C96.7612 41.7136 97.3916 40.82 98.2781 40.2463C99.1645 39.6727 100.239 39.4633 101.276 39.6618L223.834 63.3117Z" fill="#5CCD6A"/>
<g opacity="0.3">
<path d="M48.0193 248.093L47.08 252.056L201.747 278.633L254.517 70.1608C254.517 70.1608 216.412 65.8972 215.717 65.7112C215.023 65.5252 48.0193 248.093 48.0193 248.093Z" fill="black"/>
</g>
<path d="M207.711 47.0414L252.23 56.1114L199.072 272.598L40.6999 246.907L75.377 26.6777L207.711 47.0414Z" fill="#EBEBEB"/>
<path d="M207.711 47.0414L205.349 46.7026L198.477 45.6781L172.111 41.6683L75.3536 26.8266L75.5262 26.7013C66.2565 85.7085 54.2036 162.365 40.9004 246.953L40.7338 246.721L76.2295 252.482L199.128 272.417L198.91 272.563C222.163 177.907 241.269 100.256 252.139 56.0869L252.214 56.2049L219.094 49.3889L210.571 47.6281C208.666 47.2319 207.702 47.0145 207.702 47.0145C207.702 47.0145 208.676 47.1938 210.586 47.5747L219.12 49.2898L252.261 55.9971L252.36 56.0237L252.334 56.1228C241.495 100.325 222.466 177.996 199.228 272.624L199.181 272.799L199.006 272.752L76.1656 252.874L40.6699 247.112L40.4715 247.059L40.5246 246.86C53.8562 162.288 65.9396 85.64 75.2495 26.6353L75.2883 26.4905L75.4333 26.5293L172.16 41.4854L198.512 45.5811L205.377 46.6609C206.912 46.9417 207.711 47.0414 207.711 47.0414Z" fill="#495E4C"/>
<path d="M69.6333 17.4767L32.4535 239.723L197.994 267.8L232.723 45.0602L69.6333 17.4767Z" fill="white"/>
<path d="M69.6251 17.5072L232.754 44.8809L232.914 44.9238L232.872 45.0838C223.131 107.616 211.132 184.655 198.183 267.827L198.13 268.025L197.932 267.972L196.757 267.779L32.4196 239.91L32.2442 239.863L32.2911 239.688C54.3866 108.128 69.3692 19.0723 69.6251 17.5072C69.3549 19.1256 54.5193 108.212 32.6247 239.786L32.4769 239.574L196.851 267.429L198.024 267.629L197.784 267.793C210.777 184.576 222.795 107.559 232.558 45.0325L232.695 45.2244L69.6251 17.5072Z" fill="#495E4C"/>
<path d="M150.126 225.767C151.397 221.066 154.035 216.849 157.705 213.647C161.376 210.446 165.915 208.405 170.748 207.782C175.581 207.158 180.492 207.982 184.858 210.147C189.225 212.312 192.851 215.722 195.279 219.945C197.707 224.169 198.827 229.016 198.497 233.874C198.168 238.732 196.404 243.383 193.428 247.238C190.453 251.093 186.399 253.979 181.781 255.531C177.162 257.084 172.186 257.233 167.481 255.959C161.178 254.246 155.811 250.106 152.557 244.445C149.303 238.785 148.429 232.068 150.126 225.767V225.767ZM197.259 238.51C198.508 233.896 198.36 229.015 196.832 224.484C195.305 219.953 192.467 215.975 188.678 213.055C184.888 210.134 180.318 208.401 175.544 208.076C170.771 207.75 166.008 208.846 161.859 211.225C157.711 213.604 154.362 217.159 152.236 221.441C150.111 225.723 149.304 230.539 149.919 235.28C150.533 240.021 152.541 244.474 155.688 248.077C158.836 251.679 162.981 254.268 167.6 255.517C173.792 257.185 180.392 256.331 185.952 253.143C191.512 249.954 195.579 244.692 197.259 238.51V238.51Z" fill="#E0E0E0"/>
<path d="M152.865 226.5C153.975 222.402 156.275 218.725 159.477 215.934C162.678 213.144 166.637 211.364 170.851 210.822C175.066 210.279 179.348 210.997 183.155 212.885C186.962 214.774 190.124 217.747 192.241 221.43C194.358 225.113 195.335 229.339 195.048 233.575C194.762 237.812 193.224 241.867 190.63 245.229C188.036 248.591 184.502 251.109 180.475 252.464C176.448 253.818 172.109 253.95 168.006 252.841C162.506 251.347 157.823 247.735 154.984 242.797C152.146 237.858 151.383 231.997 152.865 226.5V226.5ZM191.297 236.896C192.243 233.401 192.131 229.704 190.974 226.272C189.817 222.84 187.667 219.828 184.797 217.615C181.927 215.403 178.465 214.091 174.849 213.845C171.233 213.598 167.626 214.428 164.484 216.231C161.341 218.033 158.805 220.726 157.195 223.969C155.586 227.213 154.975 230.861 155.441 234.452C155.907 238.043 157.428 241.416 159.812 244.144C162.196 246.872 165.336 248.833 168.835 249.779C173.522 251.033 178.514 250.38 182.718 247.964C186.922 245.548 189.996 241.565 191.267 236.888L191.297 236.896Z" fill="#E0E0E0"/>
<path d="M157.858 228.189C158.497 225.805 159.692 223.606 161.344 221.772L163.705 223.883C162.383 225.356 161.425 227.12 160.911 229.032C160.32 231.215 160.322 233.517 160.918 235.699C161.514 237.882 162.681 239.866 164.3 241.449C165.919 243.031 167.93 244.153 170.127 244.7C172.324 245.248 174.627 245.2 176.799 244.561L177.695 247.595C174.982 248.392 172.105 248.452 169.36 247.768C166.616 247.084 164.103 245.681 162.082 243.704C160.06 241.726 158.603 239.246 157.861 236.519C157.118 233.791 157.117 230.916 157.858 228.189V228.189Z" fill="#E0E0E0"/>
<path d="M169.771 216.809C173.18 216.059 176.741 216.451 179.907 217.924C183.072 219.397 185.664 221.869 187.285 224.96C188.905 228.05 189.463 231.586 188.873 235.023C188.283 238.461 186.577 241.608 184.019 243.98L181.865 241.646C183.912 239.748 185.277 237.228 185.749 234.476C186.221 231.725 185.774 228.894 184.476 226.421C183.179 223.947 181.103 221.969 178.569 220.791C176.035 219.612 173.184 219.299 170.455 219.9L169.771 216.809Z" fill="#E0E0E0"/>
<path d="M213.957 99.7752C213.929 99.8819 182.686 94.6635 144.136 88.1567C105.585 81.6499 74.3519 76.246 74.3729 76.1373C74.3938 76.0285 105.644 81.249 144.204 87.7502C182.764 94.2514 213.98 99.6588 213.957 99.7752Z" fill="#495E4C"/>
<path d="M140.545 78.2747C140.516 78.3814 126.084 76.0336 108.29 73.0218C90.4952 70.0099 76.0893 67.4731 76.1026 67.3623C76.116 67.2516 90.5633 69.6034 108.358 72.6152C126.152 75.6271 140.556 78.1715 140.545 78.2747Z" fill="#495E4C"/>
<path d="M212.177 108.798C212.149 108.905 180.899 103.684 142.356 97.1795C103.813 90.6748 72.5721 85.2688 72.5931 85.1601C72.614 85.0514 103.864 90.2718 142.422 96.7806C180.98 103.289 212.208 108.651 212.177 108.798Z" fill="#495E4C"/>
<path d="M210.418 117.745C210.387 117.859 179.139 112.631 140.595 106.134C102.05 99.6369 70.8107 94.2233 70.8337 94.1069C70.8567 93.9906 102.105 99.2186 140.663 105.727C179.221 112.236 210.439 117.636 210.418 117.745Z" fill="#495E4C"/>
<path d="M208.646 126.737C208.617 126.844 177.367 121.623 138.825 115.118C100.282 108.614 69.0407 103.208 69.0556 103.122C69.0704 103.036 100.327 108.234 138.887 114.735C177.447 121.236 208.663 126.643 208.646 126.737Z" fill="#495E4C"/>
<path d="M206.876 135.722C206.848 135.828 175.598 130.608 137.047 124.101C98.4969 117.594 67.271 112.192 67.2844 112.082C67.2977 111.971 98.5553 117.193 137.115 123.695C175.675 130.196 206.89 135.611 206.876 135.722Z" fill="#495E4C"/>
<path d="M205.099 144.704C205.068 144.819 173.828 139.593 135.276 133.093C96.7233 126.594 65.4918 121.183 65.5224 121.068C65.553 120.954 96.7934 126.18 135.351 132.689C173.909 139.198 205.12 144.596 205.099 144.704Z" fill="#495E4C"/>
<path d="M203.327 153.697C203.299 153.803 172.453 148.691 134.444 142.24C96.4348 135.788 65.5751 130.484 65.596 130.376C65.617 130.267 96.4703 135.381 134.52 141.835C172.569 148.289 203.35 153.58 203.327 153.697Z" fill="#495E4C"/>
<path d="M146.322 156.621C146.293 156.728 127.683 153.587 104.754 149.567C81.8248 145.547 63.2227 142.254 63.2437 142.145C63.2646 142.036 81.875 145.177 104.822 149.161C127.769 153.145 146.337 156.503 146.322 156.621Z" fill="#495E4C"/>
<path d="M104.724 223.678C104.695 223.785 93.3808 221.856 79.4322 219.352C65.4836 216.848 54.1987 214.747 54.2141 214.629C54.2295 214.51 65.5572 216.451 79.5058 218.955C93.4545 221.459 104.747 223.562 104.724 223.678Z" fill="#495E4C"/>
<path d="M81.2442 226.413C81.2135 226.527 74.853 225.517 67.0359 224.085C59.2189 222.652 52.8768 221.45 52.8902 221.34C52.9035 221.229 59.2787 222.276 67.104 223.678C74.9292 225.08 81.2651 226.304 81.2442 226.413Z" fill="#495E4C"/>
<path d="M96.19 163.83C96.1594 163.944 88.6671 162.794 79.4186 161.272C70.17 159.749 62.6922 158.424 62.7152 158.307C62.7382 158.191 70.2401 159.335 79.4866 160.865C88.7331 162.395 96.211 163.721 96.19 163.83Z" fill="#5CCD6A"/>
<g opacity="0.3">
<path d="M38.9497 202.174L54.5383 203.288L66.168 193.025L40.4725 194.447L38.9497 202.174Z" fill="black"/>
</g>
<path d="M17.2249 179.257L57.8057 186.12L66.168 193.025L56.2729 199.53L14.9093 193.086L17.2249 179.257Z" fill="#5CCD6A"/>
<path d="M146.641 176.303L146.766 176.385C146.888 176.467 146.999 176.563 147.099 176.67C147.498 177.089 147.83 177.567 148.085 178.086C149.031 180.098 149.617 182.259 149.816 184.472C150.246 187.968 149.904 191.515 148.814 194.863C148.459 195.874 148.004 196.847 147.456 197.767C146.853 198.728 146.171 199.638 145.418 200.488C143.783 202.339 141.835 203.888 139.662 205.064C137.282 206.375 134.676 207.228 131.981 207.58C129.047 207.974 126.061 207.659 123.274 206.66C120.224 205.486 117.529 203.543 115.451 201.021C113.373 198.499 111.983 195.484 111.415 192.267C111.118 190.547 111.108 188.788 111.387 187.065C111.636 185.287 112.286 183.59 113.289 182.102C114.274 180.526 115.747 179.315 117.484 178.651C118.384 178.342 119.344 178.252 120.286 178.388C121.228 178.524 122.124 178.882 122.9 179.433C124.489 180.536 125.642 182.16 126.159 184.023C126.66 185.89 126.742 187.845 126.399 189.748C125.771 193.624 124.192 197.284 121.803 200.401C119.431 203.537 116.283 206.001 112.668 207.551C109.134 209.018 105.263 209.485 101.481 208.899C97.819 208.381 94.3797 206.834 91.5645 204.437C88.9028 202.09 86.981 199.021 86.0329 195.603C85.0881 192.369 85.0813 188.934 86.0133 185.698C86.4434 184.134 87.1616 182.665 88.1311 181.364C89.0552 180.091 90.2875 179.072 91.7127 178.403C92.4099 178.079 93.1667 177.902 93.9357 177.883C94.7047 177.864 95.4693 178.004 96.1819 178.294C97.5328 178.907 98.6295 179.968 99.2853 181.298C99.9247 182.557 100.225 183.961 100.156 185.371C100.063 186.695 99.7167 187.988 99.1354 189.181C98.0093 191.378 96.4942 193.352 94.6633 195.008C93.0814 196.529 91.3483 197.884 89.4909 199.054C87.8776 200.069 86.1858 200.954 84.4318 201.701C82.9517 202.309 81.433 202.819 79.8855 203.227C77.7451 203.801 75.5485 204.141 73.3343 204.241C72.5644 204.288 71.7925 204.296 71.0217 204.266C71.0217 204.266 71.2232 204.247 71.6103 204.236C71.9974 204.225 72.5758 204.233 73.3319 204.158C75.5341 204.022 77.7162 203.66 79.8439 203.077C81.378 202.653 82.8833 202.132 84.3506 201.515C86.0873 200.763 87.7611 199.873 89.3563 198.854C91.1971 197.708 92.9173 196.379 94.491 194.888C96.2869 193.243 97.7739 191.29 98.8816 189.121C99.4523 187.953 99.7921 186.685 99.8822 185.387C99.9464 184.034 99.6529 182.687 99.0312 181.483C98.4047 180.224 97.3634 179.218 96.0824 178.635C95.412 178.366 94.6932 178.238 93.9713 178.26C93.2493 178.281 92.5397 178.452 91.8869 178.76C90.5153 179.408 89.3296 180.391 88.4392 181.618C87.5034 182.879 86.8113 184.303 86.3983 185.817C85.497 188.996 85.5155 192.366 86.4517 195.536C87.3941 198.873 89.28 201.869 91.8832 204.163C94.6479 206.498 98.0147 208.009 101.598 208.522C105.313 209.092 109.113 208.633 112.583 207.194C116.13 205.661 119.214 203.23 121.53 200.14C123.873 197.073 125.426 193.478 126.052 189.671C126.376 187.826 126.298 185.933 125.822 184.12C125.329 182.352 124.236 180.809 122.732 179.755C121.995 179.243 121.152 178.906 120.266 178.768C119.39 178.651 118.5 178.737 117.664 179.018C116.008 179.651 114.605 180.807 113.667 182.309C112.691 183.749 112.06 185.393 111.823 187.116C111.53 188.789 111.522 190.499 111.8 192.174C112.356 195.327 113.715 198.284 115.747 200.76C117.779 203.236 120.415 205.148 123.401 206.31C126.137 207.293 129.067 207.611 131.95 207.237C134.61 206.895 137.182 206.061 139.535 204.777C142.676 203.08 145.325 200.602 147.227 197.583C147.772 196.688 148.222 195.738 148.567 194.748C149.678 191.425 150.045 187.899 149.643 184.418C149.462 182.218 148.905 180.066 147.995 178.054C147.752 177.537 147.438 177.057 147.061 176.628C146.808 176.413 146.627 176.323 146.641 176.303Z" fill="#495E4C"/>
<path d="M187.399 72.9568C187.399 72.9568 187.433 72.8272 187.445 72.569C187.457 72.3109 187.534 71.9313 187.606 71.4521C187.756 70.4632 187.981 69.0124 188.263 67.1358L190.765 50.9631L190.866 51.1045L106.152 37.7008L106.384 37.5344C105.183 45.0704 104.03 52.4234 102.884 59.5086L102.717 59.2761L163.132 68.9866L180.919 71.8739L185.712 72.6601L186.956 72.8708L187.383 72.9852L186.972 72.9323L185.745 72.7506L180.985 72.0224L163.223 69.2561L102.666 59.6791L102.468 59.6259L102.519 59.4354C103.594 52.372 104.81 44.9951 106.004 37.4571L106.057 37.259L106.256 37.3121L190.917 50.824L191.039 50.8567L191.008 50.9711C189.872 57.9282 188.978 63.431 188.36 67.2025C188.049 69.0633 187.813 70.4948 187.647 71.4796C187.568 71.9567 187.505 72.3155 187.46 72.5731C187.416 72.8308 187.399 72.9568 187.399 72.9568Z" fill="#455A64"/>
<path d="M108.085 53.5034L109.615 44.4498L114.167 45.2188C115.262 45.4037 116.02 45.7756 116.44 46.3343C116.861 46.8844 116.985 47.6767 116.81 48.7114C116.635 49.7461 116.258 50.4584 115.677 50.8481C115.099 51.2293 114.262 51.3274 113.167 51.1424L110.179 50.6378L109.65 53.7677L108.085 53.5034ZM110.428 49.1633L113.325 49.6527C113.903 49.7503 114.345 49.7052 114.652 49.5176C114.96 49.3213 115.158 48.9645 115.245 48.4471C115.334 47.9211 115.264 47.5192 115.036 47.2412C114.817 46.9647 114.414 46.777 113.828 46.6779L110.931 46.1886L110.428 49.1633Z" fill="#78C081"/>
<path d="M119.244 55.5079C118.365 55.3594 117.746 55.0863 117.387 54.6888C117.03 54.2826 116.912 53.7216 117.033 53.006C117.158 52.2644 117.471 51.7763 117.972 51.5417C118.483 51.2998 119.247 51.2648 120.264 51.4367L122.424 51.8015C122.497 51.264 122.412 50.8505 122.168 50.561C121.935 50.2643 121.516 50.065 120.912 49.9631C120.421 49.8801 120.028 49.8979 119.733 50.0166C119.439 50.1267 119.22 50.3512 119.074 50.6901L117.612 50.4433C117.868 49.6618 118.277 49.1322 118.838 48.8545C119.401 48.5682 120.182 48.5095 121.183 48.6785C122.304 48.8678 123.076 49.2332 123.498 49.7747C123.93 50.3176 124.061 51.0934 123.89 52.1023L123.222 56.06L121.747 55.811L121.876 55.0479C121.277 55.5497 120.4 55.7031 119.244 55.5079ZM118.503 53.2011C118.41 53.7529 118.846 54.1104 119.812 54.2735C120.476 54.3857 120.996 54.3494 121.373 54.1648C121.75 53.9802 122.026 53.6365 122.199 53.1337L122.239 52.9009L120.467 52.6016C119.26 52.3977 118.605 52.5975 118.503 53.2011Z" fill="#78C081"/>
<path d="M124.949 54.1968L126.411 54.4436C126.488 55.0864 127.045 55.4952 128.079 55.6699C129.114 55.8447 129.67 55.7036 129.747 55.2466C129.816 54.8414 129.252 54.4491 128.057 54.0698C127.02 53.7527 126.307 53.4019 125.92 53.0172C125.543 52.6253 125.408 52.1104 125.516 51.4723C125.631 50.7911 125.945 50.3253 126.457 50.0748C126.978 49.8258 127.734 49.7851 128.726 49.9525C129.735 50.1229 130.464 50.4279 130.913 50.8673C131.362 51.3068 131.577 51.9197 131.56 52.706L130.098 52.4591C130.059 52.1155 129.908 51.8506 129.647 51.6646C129.396 51.4714 129.007 51.3304 128.481 51.2415C127.533 51.0813 127.022 51.2168 126.95 51.6479C126.913 51.8635 127.022 52.0592 127.276 52.2352C127.54 52.404 127.962 52.5817 128.543 52.7684C129.645 53.123 130.386 53.4876 130.766 53.8623C131.156 54.2297 131.298 54.7281 131.192 55.3576C131.074 56.056 130.743 56.5412 130.201 56.8132C129.658 57.0851 128.865 57.133 127.822 56.9568C126.805 56.7849 126.067 56.4785 125.609 56.0376C125.16 55.5982 124.94 54.9846 124.949 54.1968Z" fill="#78C081"/>
<path d="M135.264 58.2138C134.092 58.0157 133.285 57.5956 132.843 56.9535C132.402 56.3114 132.284 55.3824 132.489 54.1666C132.694 52.9509 133.111 52.1122 133.739 51.6507C134.367 51.1891 135.267 51.0574 136.44 51.2554C137.483 51.4317 138.232 51.7754 138.686 52.2868C139.141 52.7981 139.351 53.5253 139.316 54.4683L137.854 54.2214C137.835 53.757 137.696 53.4009 137.436 53.1531C137.176 52.9053 136.775 52.7355 136.232 52.6437C135.559 52.5301 135.044 52.616 134.685 52.9013C134.328 53.178 134.087 53.6828 133.964 54.4157C133.84 55.1486 133.9 55.7087 134.145 56.0959C134.392 56.4745 134.851 56.7207 135.524 56.8343C136.058 56.9246 136.489 56.8953 136.816 56.7465C137.152 56.5905 137.405 56.3007 137.575 55.877L139.036 56.1238C138.77 57.0189 138.333 57.6368 137.725 57.9776C137.128 58.3113 136.308 58.39 135.264 58.2138Z" fill="#78C081"/>
<path d="M142.27 59.3971C141.39 59.2485 140.771 58.9755 140.413 58.5779C140.056 58.1717 139.938 57.6108 140.059 56.8951C140.184 56.1536 140.497 55.6655 140.998 55.4308C141.508 55.189 142.273 55.154 143.29 55.3258L145.45 55.6907C145.523 55.1532 145.438 54.7397 145.194 54.4502C144.96 54.1535 144.542 53.9542 143.938 53.8523C143.447 53.7692 143.053 53.7871 142.758 53.9058C142.465 54.0158 142.245 54.2403 142.099 54.5793L140.638 54.3324C140.894 53.5509 141.303 53.0213 141.864 52.7437C142.427 52.4574 143.208 52.3987 144.208 52.5676C145.329 52.757 146.101 53.1224 146.524 53.6638C146.956 54.2067 147.086 54.9826 146.916 55.9914L146.247 59.9492L144.773 59.7001L144.902 58.937C144.303 59.4389 143.425 59.5922 142.27 59.3971ZM141.529 57.0903C141.436 57.6421 141.872 57.9996 142.838 58.1627C143.501 58.2748 144.022 58.2386 144.399 58.054C144.776 57.8693 145.051 57.5256 145.225 57.0228L145.264 56.79L143.492 56.4907C142.285 56.2869 141.631 56.4867 141.529 57.0903Z" fill="#78C081"/>
<path d="M147.957 60.238L149.596 50.5377L151.057 50.7845L149.419 60.4849L147.957 60.238Z" fill="#78C081"/>
<path d="M155.548 52.2082L157.203 52.4878L159.25 60.4559L163.8 53.6019L165.455 53.8816L159.865 62.2492L158.08 61.9478L155.548 52.2082Z" fill="#78C081"/>
<path d="M164.811 59.626C165.015 58.4188 165.435 57.5852 166.071 57.1251C166.709 56.6564 167.632 56.524 168.839 56.7279C170.046 56.9318 170.87 57.3548 171.312 57.9969C171.753 58.6391 171.871 59.568 171.666 60.7838C171.65 60.8786 171.616 61.0281 171.563 61.2321L166.248 60.3342C166.197 60.9466 166.304 61.4169 166.568 61.7452C166.84 62.075 167.283 62.2916 167.895 62.3951C168.8 62.548 169.434 62.3402 169.796 61.7717L171.322 62.0295C171.011 62.8195 170.548 63.331 169.932 63.564C169.317 63.7969 168.56 63.8377 167.664 63.6862C166.456 63.4823 165.628 63.0586 165.178 62.415C164.728 61.7714 164.605 60.8417 164.811 59.626ZM166.446 59.2371L170.288 59.8859C170.303 59.3209 170.175 58.8958 169.904 58.6106C169.635 58.3167 169.211 58.121 168.633 58.0234C168.056 57.9259 167.587 57.9708 167.227 58.1584C166.876 58.3474 166.616 58.7069 166.446 59.2371Z" fill="#78C081"/>
<path d="M173.635 57.6576L175.096 57.9045L174.961 58.7064C175.538 58.1743 176.366 57.9993 177.444 58.1813C178.401 58.343 179.058 58.7024 179.417 59.2595C179.785 59.8095 179.88 60.6104 179.703 61.6624L179.056 65.4908L177.594 65.2439L178.241 61.4155C178.337 60.8464 178.265 60.4085 178.024 60.1018C177.792 59.7965 177.378 59.5936 176.783 59.4931C176.111 59.3795 175.596 59.4611 175.239 59.7377C174.89 60.0159 174.653 60.5257 174.528 61.2673L173.96 64.63L172.499 64.3832L173.635 57.6576Z" fill="#78C081"/>
<path d="M183.861 59.3849L185.814 59.7147L185.582 61.0857L183.629 60.7558L183.14 63.653C183.076 64.0324 183.119 64.3236 183.271 64.5266C183.423 64.7297 183.706 64.8661 184.12 64.936L185 65.0846L184.768 66.4556L183.85 66.3005C182.944 66.1475 182.315 65.8551 181.963 65.423C181.62 64.9838 181.516 64.3675 181.65 63.5743L182.167 60.509L181.107 60.3298L181.338 58.9589L182.399 59.138L182.648 57.6636L184.11 57.9104L183.861 59.3849Z" fill="#78C081"/>
</g>
<defs>
<clipPath id="clip0_628_604">
<rect width="221.742" height="252.132" fill="white" transform="translate(65.2566) rotate(15)"/>
</clipPath>
</defs>
</svg>
