<svg width="826" height="910" viewBox="0 0 826 910" fill="none" xmlns="http://www.w3.org/2000/svg">
<path d="M0.999986 13.3147C13.0398 24.6534 80.7098 44.2848 88.7429 51.4841C101.13 62.585 114.137 70.5786 131.118 75.9677C161.531 85.62 200.883 70.4398 219.436 55.5331C232.089 44.1004 234.963 33.839 234.963 23.5768C234.963 10.2361 219.436 1 207.863 1C196.29 0.999837 185.57 1 175.425 13.3147C158.672 33.6516 178.659 59.4663 202.957 64.0106C234.562 69.9214 253.785 76.9384 283.414 67.0197C310.065 58.0982 328.901 50.4586 353.494 43.1149C371.124 37.8506 397.036 44.4477 409.393 47.9744C451.963 60.1229 483.281 44.5588 528 76.5625" stroke="#5CCD6A" stroke-linecap="round" stroke-dasharray="8 8"/>
<path d="M230.233 359.972C242.34 382.377 321.946 361.876 344.227 396.809C356.789 425.189 381.247 439.777 395.823 441.636C414.041 443.96 436.214 442.183 454.767 441.015" stroke="#5CCD6A" stroke-linecap="round" stroke-dasharray="8 8"/>
<path d="M238 668C246.174 662.826 266.016 666.893 278.83 663.942C289.013 660.841 294.57 659.47 302.539 649.795C308.1 640.368 313.298 631.75 311.61 620.872C310.198 611.767 283.056 603.058 276.205 614.062C272.677 615.326 273.365 623.551 274.395 625.876C276.837 631.384 279.889 635.453 286.25 639.002C300.606 647.011 331.245 652.061 350.296 639.002C468.786 557.78 566.449 587.584 601.755 591.748C625.465 594.544 644.883 619.79 641.823 632.749C638.118 648.436 618.547 655.759 604.058 655.759C586.142 655.759 567.501 644.625 567.501 625.803C567.501 604.374 594.847 594.893 620.892 591.748C641.382 589.273 653.647 589.616 673.921 593.06C728.406 602.316 800.5 591.748 825 529" stroke="#5CCD6A" stroke-linecap="round" stroke-dasharray="8 8"/>
<path d="M803 872C782 891 755.1 898.016 740.849 901.591C720.718 905.531 704.289 909 688.013 909C665.341 909 644.489 907.342 622.459 902.954C602.551 898.989 573.965 881.539 553 872" stroke="#5CCD6A" stroke-linecap="round" stroke-dasharray="8 8"/>
<path d="M442 812C416.17 796.956 402.161 791.483 371.787 785.441C318.754 774.891 279.659 804.687 225.233 804.389C184.206 804.165 119.042 771.921 105 744" stroke="#5CCD6A" stroke-linecap="round" stroke-dasharray="8 8"/>
<path d="M716.928 222.234C699.438 241.1 671.995 246.925 655.44 247.937C609.449 255.318 568.615 228.552 529.499 208.995C483.982 196.231 461.433 233.445 438.158 245.382C414.883 257.32 360.378 246.496 329.567 221.095" stroke="#5CCD6A" stroke-linecap="round" stroke-dasharray="8 8"/>
<path d="M212 216.7C224.888 205.055 229.949 197.976 250.089 192.31C270.229 186.645 280.416 190.908 292.09 198.218" stroke="#5CCD6A" stroke-linecap="round" stroke-dasharray="8 8"/>
</svg>
