<svg width="70" height="40" viewBox="0 0 70 40" fill="none" xmlns="http://www.w3.org/2000/svg">
<rect x="0.5" y="0.5" width="69" height="39" rx="19.5" stroke="#78C081"/>
<path d="M19.4362 22.5447C21.3292 24.1334 23.4747 25.9342 27.6248 25.9342C31.775 25.9342 33.9206 24.1334 35.8136 22.5447C37.6039 21.0422 39.15 19.7446 42.3749 19.7446C45.5998 19.7446 47.146 21.0422 48.9361 22.5447C49.4602 22.9844 50.2493 22.9254 50.6988 22.4126C51.1482 21.8999 51.0878 21.1277 50.5638 20.688C48.6707 19.0992 46.5251 17.2984 42.3749 17.2984C38.2247 17.2984 36.0791 19.0992 34.186 20.688C32.3958 22.1904 30.8496 23.4881 27.6248 23.4881C24.4 23.4881 22.854 22.1905 21.0639 20.688C20.5399 20.2482 19.7508 20.3072 19.3013 20.82C18.8518 21.3327 18.9122 22.1049 19.4362 22.5447Z" fill="#78C081"/>
<path d="M19.4362 15.8544C21.3291 17.4432 23.4746 19.2439 27.6248 19.2439C31.775 19.2439 33.9206 17.4432 35.8136 15.8544C37.6039 14.3519 39.15 13.0543 42.3749 13.0543C45.5997 13.0543 47.1458 14.3519 48.9361 15.8544C49.4602 16.2942 50.2493 16.235 50.6987 15.7222C51.1482 15.2095 51.0876 14.4372 50.5636 13.9975C48.6706 12.4087 46.525 10.6081 42.3749 10.6081C38.2247 10.6081 36.0791 12.4088 34.186 13.9976C32.3958 15.5001 30.8496 16.7977 27.6248 16.7977C24.4 16.7977 22.854 15.5002 21.0639 13.9976C20.5399 13.5578 19.7507 13.6169 19.3013 14.1297C18.8518 14.6424 18.9122 15.4146 19.4362 15.8544Z" fill="#78C081"/>
<path d="M50.5637 27.3773C48.6707 25.7886 46.525 23.9878 42.3748 23.9878C38.2247 23.9878 36.079 25.7885 34.186 27.3773C32.3957 28.8798 30.8496 30.1774 27.6247 30.1774C24.4001 30.1774 22.854 28.8798 21.0639 27.3775L21.0638 27.3773C20.5398 26.9377 19.7507 26.9968 19.3012 27.5094C18.8518 28.0221 18.9122 28.7943 19.4362 29.2341C21.3292 30.8229 23.4748 32.6236 27.6247 32.6236C31.7749 32.6236 33.9205 30.8228 35.8136 29.234C37.6038 27.7316 39.15 26.434 42.3748 26.434C45.5998 26.434 47.1459 27.7316 48.9361 29.234C49.4602 29.6738 50.2493 29.6147 50.6987 29.102C51.1482 28.5892 51.0878 27.8171 50.5637 27.3773Z" fill="#78C081"/>
</svg>
