<svg width="70" height="40" viewBox="0 0 70 40" fill="none" xmlns="http://www.w3.org/2000/svg">
<rect x="0.5" y="0.5" width="69" height="39" rx="19.5" stroke="#78C081"/>
<path fill-rule="evenodd" clip-rule="evenodd" d="M31.1802 29.0065C31.1802 30.8461 32.6281 32.3416 34.4097 32.3416C36.1914 32.3416 37.6393 30.8461 37.6393 29.0065C37.6393 27.1671 36.1914 25.6715 34.4097 25.6715C32.6281 25.6715 31.1802 27.1671 31.1802 29.0065ZM34.4097 30.6998C33.5065 30.6998 32.7703 29.9397 32.7703 29.0065C32.7703 28.0735 33.5066 27.3133 34.4097 27.3133C35.3129 27.3133 36.0492 28.0735 36.0492 29.0065C36.0492 29.9397 35.3129 30.6998 34.4097 30.6998Z" fill="#78C081"/>
<path fill-rule="evenodd" clip-rule="evenodd" d="M34.4098 27.3133C34.8489 27.3133 35.2048 26.9458 35.2048 26.4924V14.9512C35.2048 14.4978 34.8489 14.1303 34.4098 14.1303C33.9707 14.1303 33.6147 14.4978 33.6147 14.9512V26.4924C33.6147 26.9458 33.9707 27.3133 34.4098 27.3133Z" fill="#78C081"/>
<path fill-rule="evenodd" clip-rule="evenodd" d="M34.4097 33.9841C31.7481 33.9841 29.5901 31.7557 29.5901 29.0066C29.5901 27.2936 30.4274 25.7825 31.7058 24.8857C31.9237 24.7329 32.0541 24.4786 32.0541 24.2067V11.6806C32.0541 10.3368 33.1089 9.24775 34.4097 9.24775C35.7106 9.24775 36.7654 10.3368 36.7654 11.6806V24.2067C36.7654 24.4786 36.8958 24.7329 37.1137 24.8857C38.3922 25.7825 39.2294 27.2936 39.2294 29.0066C39.2294 31.7557 37.0714 33.9841 34.4097 33.9841ZM28 29.0066C28 32.6622 30.8696 35.6259 34.4097 35.6259C37.9499 35.6259 40.8195 32.6622 40.8195 29.0066C40.8195 26.8869 39.854 25.0005 38.3555 23.79V11.6806C38.3555 9.43033 36.589 7.60596 34.4097 7.60596C32.2305 7.60596 30.464 9.43033 30.464 11.6806V23.79C28.9655 25.0005 28 26.8869 28 29.0066Z" fill="#78C081"/>
<path fill-rule="evenodd" clip-rule="evenodd" d="M39.9458 21.5331C39.9458 21.9865 40.3018 22.354 40.7408 22.354H43.2049C43.644 22.354 43.9999 21.9865 43.9999 21.5331C43.9999 21.0797 43.644 20.7122 43.2049 20.7122H40.7408C40.3018 20.7122 39.9458 21.0797 39.9458 21.5331Z" fill="#78C081"/>
<path fill-rule="evenodd" clip-rule="evenodd" d="M39.9458 18.2493C39.9458 18.7027 40.3018 19.0702 40.7408 19.0702H43.2049C43.644 19.0702 43.9999 18.7027 43.9999 18.2493C43.9999 17.7959 43.644 17.4284 43.2049 17.4284H40.7408C40.3018 17.4284 39.9458 17.7959 39.9458 18.2493Z" fill="#78C081"/>
<path fill-rule="evenodd" clip-rule="evenodd" d="M39.9458 14.9648C39.9458 15.4181 40.3018 15.7857 40.7408 15.7857H43.2049C43.644 15.7857 43.9999 15.4181 43.9999 14.9648C43.9999 14.5114 43.644 14.1439 43.2049 14.1439H40.7408C40.3018 14.1439 39.9458 14.5114 39.9458 14.9648Z" fill="#78C081"/>
<path fill-rule="evenodd" clip-rule="evenodd" d="M39.9458 11.6805C39.9458 12.1338 40.3018 12.5014 40.7408 12.5014H43.2049C43.644 12.5014 43.9999 12.1338 43.9999 11.6805C43.9999 11.2271 43.644 10.8596 43.2049 10.8596H40.7408C40.3018 10.8596 39.9458 11.2271 39.9458 11.6805Z" fill="#78C081"/>
</svg>
