<svg width="70" height="40" viewBox="0 0 70 40" fill="none" xmlns="http://www.w3.org/2000/svg">
<rect x="0.5" y="0.5" width="69" height="39" rx="19.5" stroke="#78C081"/>
<g clip-path="url(#clip0_106_999)">
<path d="M40.0912 12.1705C38.5915 10.3435 37.0405 8.457 35.7902 6.4305C35.6252 6.1645 35.3245 6 35 6C34.6755 6 34.3748 6.1645 34.2117 6.4305C32.9613 8.45525 31.4103 10.3435 29.9107 12.1688C26.871 15.8683 24 19.363 24 23.5C24 29.2908 28.9335 34 35 34C41.0665 34 46 29.2908 46 23.5C46 19.3648 43.1308 15.87 40.0912 12.1705ZM35 32.25C29.9455 32.25 25.8333 28.3247 25.8333 23.5C25.8333 19.9667 28.5137 16.7048 31.3535 13.2485C32.5928 11.74 33.8652 10.1913 35 8.53225C36.1348 10.1913 37.4072 11.7418 38.6465 13.2503C41.4863 16.7048 44.1667 19.9685 44.1667 23.5C44.1667 28.3247 40.0545 32.25 35 32.25Z" fill="#78C081"/>
<path d="M32.25 16.5C30.7338 16.5 29.5 17.6777 29.5 19.125C29.5 20.5723 30.7338 21.75 32.25 21.75C33.7662 21.75 35 20.5723 35 19.125C35 17.6777 33.7662 16.5 32.25 16.5ZM32.25 20C31.744 20 31.3333 19.608 31.3333 19.125C31.3333 18.642 31.744 18.25 32.25 18.25C32.756 18.25 33.1667 18.642 33.1667 19.125C33.1667 19.608 32.756 20 32.25 20Z" fill="#78C081"/>
<path d="M37.75 25.25C36.2338 25.25 35 26.4277 35 27.875C35 29.3223 36.2338 30.5 37.75 30.5C39.2662 30.5 40.5 29.3223 40.5 27.875C40.5 26.4277 39.2662 25.25 37.75 25.25ZM37.75 28.75C37.2458 28.75 36.8333 28.3563 36.8333 27.875C36.8333 27.3937 37.2458 27 37.75 27C38.2542 27 38.6667 27.3937 38.6667 27.875C38.6667 28.3563 38.2542 28.75 37.75 28.75Z" fill="#78C081"/>
<path d="M40.2305 18.5073C39.873 18.166 39.2918 18.166 38.9343 18.5073L29.7676 27.2573C29.4101 27.5985 29.4101 28.1533 29.7676 28.4945C29.9473 28.6643 30.182 28.75 30.4166 28.75C30.6513 28.75 30.886 28.6643 31.0638 28.4945L40.2305 19.7445C40.588 19.4033 40.588 18.8485 40.2305 18.5073Z" fill="#78C081"/>
</g>
<defs>
<clipPath id="clip0_106_999">
<rect width="22" height="28" fill="white" transform="translate(24 6)"/>
</clipPath>
</defs>
</svg>
