<svg width="70" height="40" viewBox="0 0 70 40" fill="none" xmlns="http://www.w3.org/2000/svg">
<rect x="0.5" y="0.5" width="69" height="39" rx="19.5" stroke="#78C081"/>
<path d="M34.9996 6C32.2307 6.00005 29.524 6.82118 27.2218 8.35955C24.9195 9.89793 23.1252 12.0844 22.0656 14.6426C21.006 17.2008 20.7288 20.0157 21.269 22.7314C21.8093 25.4471 23.1426 27.9417 25.1006 29.8996C27.0585 31.8575 29.553 33.1908 32.2688 33.731C34.9845 34.2712 37.7994 33.9939 40.3575 32.9343C42.9156 31.8746 45.1021 30.0802 46.6404 27.778C48.1787 25.4757 48.9998 22.7689 48.9998 20C48.9956 16.2882 47.5192 12.7297 44.8945 10.1051C42.2699 7.48049 38.7114 6.00416 34.9996 6ZM34.9996 33.0674C32.4152 33.0674 29.8889 32.301 27.7401 30.8651C25.5912 29.4292 23.9164 27.3884 22.9275 25.0007C21.9385 22.613 21.6797 19.9857 22.1839 17.4509C22.6881 14.9162 23.9326 12.5878 25.7601 10.7604C27.5875 8.93293 29.9158 7.6884 32.4506 7.1842C34.9853 6.67999 37.6126 6.93874 40.0003 7.92773C42.388 8.91672 44.4288 10.5915 45.8647 12.7404C47.3005 14.8892 48.0669 17.4156 48.067 20C48.063 23.4645 46.685 26.7859 44.2352 29.2356C41.7855 31.6853 38.4641 33.0635 34.9996 33.0674Z" fill="#78C081"/>
<path d="M34.9996 33.0674C32.4152 33.0674 29.8889 32.301 27.7401 30.8651C25.5912 29.4292 23.9164 27.3884 22.9275 25.0007C21.9385 22.613 21.6797 19.9857 22.1839 17.4509C22.6881 14.9162 23.9326 12.5878 25.7601 10.7604C27.5875 8.93293 29.9158 7.6884 32.4506 7.1842C34.9853 6.67999 37.6126 6.93874 40.0003 7.92773C42.388 8.91672 44.4288 10.5915 45.8647 12.7404C47.3005 14.8892 48.0669 17.4156 48.067 20C48.063 23.4645 46.685 26.7859 44.2352 29.2356C41.7855 31.6853 38.4641 33.0635 34.9996 33.0674Z" fill="#78C081"/>
<path d="M26.1546 25.8285C24.5737 23.7851 23.8156 21.2712 24.0177 18.7425C24.2198 16.2138 25.3688 13.8376 27.2563 12.0443C29.1439 10.2511 31.6452 9.15957 34.307 8.96752C36.9688 8.77546 39.615 9.4956 41.766 10.9974L26.1546 25.8285Z" fill="white"/>
<path fill-rule="evenodd" clip-rule="evenodd" d="M42.9993 10.9278C42.9958 10.8625 42.9779 10.7987 42.9468 10.7404C42.9157 10.6821 42.8721 10.6307 42.8187 10.5894C40.4859 8.78616 37.5319 7.86891 34.5284 8.01514C31.5248 8.16136 28.685 9.36066 26.5584 11.381C24.4319 13.4014 23.1696 16.0993 23.0159 18.9527C22.8622 21.8061 23.8279 24.6122 25.7262 26.8283C25.7696 26.879 25.8237 26.9206 25.8851 26.9502C25.9465 26.9798 26.0137 26.9968 26.0824 27.0001H26.1074C26.1719 27.0001 26.2358 26.988 26.2954 26.9645C26.3551 26.9411 26.4092 26.9066 26.4548 26.8633L42.8558 11.2827C42.9046 11.2364 42.9426 11.1809 42.9673 11.1197C42.992 11.0586 43.0029 10.9932 42.9993 10.9278ZM24.0177 18.7425C23.8156 21.2712 24.5737 23.7851 26.1546 25.8285L41.766 10.9974C39.615 9.4956 36.9688 8.77546 34.307 8.96752C31.6452 9.15957 29.1439 10.2511 27.2563 12.0443C25.3688 13.8376 24.2198 16.2138 24.0177 18.7425Z" fill="white"/>
<path d="M34.7449 31.0582C32.4181 31.0656 30.1473 30.3804 28.2515 29.0988L43.9446 14.1901C45.2939 15.9906 46.0156 18.1474 46.0085 20.3576C46.0051 23.1946 44.8173 25.9145 42.7057 27.9206C40.5941 29.9266 37.7311 31.055 34.7449 31.0582Z" fill="white"/>
<path fill-rule="evenodd" clip-rule="evenodd" d="M44.3905 13.1801C44.3472 13.1277 44.2927 13.0846 44.2306 13.0537C44.1685 13.0228 44.1001 13.0047 44.0301 13.0006C43.9602 12.9973 43.8904 13.0078 43.8249 13.0314C43.7595 13.0551 43.7 13.0913 43.65 13.1379L27.1453 28.8176C27.0957 28.8647 27.0572 28.9212 27.0323 28.9835C27.0074 29.0458 26.9967 29.1124 27.0009 29.1789C27.0051 29.2454 27.0241 29.3102 27.0567 29.3692C27.0892 29.4282 27.1346 29.48 27.1898 29.5211C29.341 31.1346 32.004 32.0084 34.7449 32.0001C37.994 31.9966 41.109 30.7689 43.4065 28.5863C45.7039 26.4036 46.9963 23.4443 46.9999 20.3576C47.0085 17.7538 46.0888 15.2239 44.3905 13.1801ZM28.2515 29.0988C30.1473 30.3804 32.4181 31.0656 34.7449 31.0582C37.7311 31.055 40.5941 29.9266 42.7057 27.9206C44.8173 25.9145 46.0051 23.1946 46.0085 20.3576C46.0156 18.1474 45.2939 15.9906 43.9446 14.1901L28.2515 29.0988Z" fill="white"/>
<path d="M33 14.2106C33 14.45 33.071 14.6841 33.204 14.8831C33.337 15.0822 33.5261 15.2374 33.7473 15.329C33.9685 15.4206 34.2119 15.4446 34.4467 15.3979C34.6815 15.3512 34.8972 15.2359 35.0665 15.0666C35.2358 14.8973 35.3511 14.6816 35.3978 14.4468C35.4445 14.2119 35.4206 13.9685 35.3289 13.7473C35.2373 13.5261 35.0822 13.3371 34.8831 13.2041C34.684 13.071 34.45 13 34.2105 13C33.8896 13.0004 33.5819 13.1281 33.355 13.355C33.128 13.5819 33.0004 13.8896 33 14.2106ZM34.488 14.2106C34.488 14.2655 34.4717 14.3192 34.4412 14.3649C34.4107 14.4106 34.3673 14.4462 34.3166 14.4672C34.2658 14.4882 34.21 14.4937 34.1561 14.483C34.1022 14.4723 34.0527 14.4458 34.0139 14.407C33.9751 14.3681 33.9486 14.3187 33.9379 14.2648C33.9272 14.2109 33.9327 14.1551 33.9537 14.1043C33.9747 14.0536 34.0103 14.0102 34.056 13.9797C34.1017 13.9492 34.1554 13.9329 34.2103 13.9329C34.2839 13.933 34.3545 13.9622 34.4066 14.0143C34.4586 14.0664 34.4879 14.137 34.488 14.2106V14.2106Z" fill="#78C081"/>
<path d="M43.2105 19.0001C42.9711 19.0001 42.7371 19.0711 42.538 19.2041C42.3389 19.3371 42.1838 19.5262 42.0921 19.7474C42.0005 19.9686 41.9766 20.212 42.0233 20.4468C42.07 20.6816 42.1853 20.8973 42.3546 21.0666C42.5239 21.2359 42.7396 21.3512 42.9744 21.3979C43.2092 21.4446 43.4526 21.4207 43.6738 21.3291C43.895 21.2374 44.0841 21.0823 44.2171 20.8832C44.3501 20.6841 44.4211 20.4501 44.4211 20.2106C44.4208 19.8897 44.2932 19.5819 44.0662 19.355C43.8393 19.128 43.5315 19.0004 43.2105 19.0001V19.0001ZM43.2105 20.4881C43.1556 20.4881 43.1019 20.4718 43.0562 20.4413C43.0106 20.4107 42.975 20.3674 42.9539 20.3166C42.9329 20.2658 42.9274 20.21 42.9382 20.1561C42.9489 20.1022 42.9754 20.0527 43.0143 20.0139C43.0531 19.9751 43.1026 19.9487 43.1565 19.938C43.2104 19.9273 43.2663 19.9328 43.317 19.9539C43.3677 19.9749 43.4111 20.0106 43.4416 20.0563C43.4721 20.102 43.4883 20.1557 43.4883 20.2106C43.4882 20.2843 43.4589 20.3548 43.4068 20.4069C43.3548 20.4589 43.2842 20.4881 43.2105 20.4881V20.4881Z" fill="#78C081"/>
<path d="M27.5 15.0001C27.0055 15.0001 26.5222 15.1467 26.1111 15.4214C25.7 15.6961 25.3795 16.0866 25.1903 16.5434C25.0011 17.0002 24.9516 17.5029 25.048 17.9878C25.1445 18.4728 25.3826 18.9182 25.7322 19.2679C26.0819 19.6175 26.5273 19.8556 27.0123 19.9521C27.4972 20.0485 27.9999 19.999 28.4567 19.8098C28.9135 19.6206 29.304 19.3002 29.5787 18.889C29.8534 18.4779 30 17.9946 30 17.5001C29.9993 16.8373 29.7356 16.2018 29.267 15.7331C28.7983 15.2644 28.1628 15.0008 27.5 15.0001V15.0001ZM27.5 18.6276C27.277 18.6276 27.059 18.5614 26.8736 18.4375C26.6882 18.3137 26.5437 18.1376 26.4584 17.9316C26.373 17.7255 26.3507 17.4988 26.3942 17.2801C26.4377 17.0614 26.5451 16.8605 26.7028 16.7029C26.8604 16.5452 27.0613 16.4378 27.28 16.3943C27.4987 16.3508 27.7254 16.3731 27.9315 16.4585C28.1375 16.5438 28.3136 16.6883 28.4374 16.8737C28.5613 17.0591 28.6275 17.2771 28.6275 17.5001C28.6271 17.799 28.5083 18.0856 28.2969 18.297C28.0855 18.5084 27.7989 18.6272 27.5 18.6276V18.6276Z" fill="#78C081"/>
<path d="M41.6396 26.0744L41.3982 25.9904C41.5555 25.4803 41.531 24.9328 41.329 24.4382C41.127 23.9436 40.7594 23.5314 40.2868 23.2695L40.3927 22.7643C40.4216 22.6265 40.3937 22.4829 40.3149 22.3654C40.2361 22.2478 40.113 22.1657 39.9727 22.1373C39.8323 22.1089 39.6863 22.1364 39.5666 22.2138C39.4469 22.2911 39.3633 22.412 39.3344 22.5499L39.2906 22.7595C39.0678 22.4578 38.7569 22.2297 38.3992 22.1054C38.0415 21.9811 37.6538 21.9665 37.2874 22.0635C36.921 22.1605 36.5933 22.3645 36.3476 22.6486C36.1019 22.9326 35.9499 23.2833 35.9116 23.6541C35.8539 23.6756 35.8011 23.7056 35.7455 23.7311L35.4136 23.3481C35.3202 23.242 35.1878 23.1766 35.0453 23.1661C34.9029 23.1557 34.7621 23.2011 34.6536 23.2923C34.5452 23.3836 34.4779 23.5133 34.4666 23.6532C34.4552 23.793 34.5007 23.9316 34.5931 24.0386L34.8866 24.3755C34.5817 24.7243 34.3815 25.1495 34.3082 25.6036C34.2348 26.0577 34.2914 26.5228 34.4714 26.9472L34.2161 27.1352C34.1015 27.2197 34.0257 27.3454 34.0054 27.4847C33.9852 27.6241 34.0221 27.7656 34.1081 27.8782C34.194 27.9908 34.322 28.0652 34.4639 28.0852C34.6057 28.1051 34.7498 28.0688 34.8644 27.9843L35.0904 27.8179C35.4275 28.1285 35.8446 28.3428 36.2967 28.4374C36.7488 28.532 37.2186 28.5034 37.6553 28.3546L37.7226 28.6051C37.7592 28.7412 37.8494 28.8574 37.9733 28.9282C38.0971 28.999 38.2445 29.0185 38.3831 28.9825C38.5216 28.9465 38.6399 28.858 38.712 28.7363C38.784 28.6146 38.8039 28.4698 38.7673 28.3337L38.6129 27.7639C38.6565 27.7214 38.7006 27.6796 38.741 27.6335C38.8627 27.6524 38.9856 27.662 39.1087 27.662C39.4342 27.6618 39.7563 27.5962 40.055 27.4692C40.3537 27.3421 40.6228 27.1563 40.8456 26.9232L41.2794 27.0749C41.3462 27.0981 41.4171 27.1082 41.488 27.1046C41.5589 27.1009 41.6283 27.0836 41.6924 27.0535C41.7564 27.0235 41.8138 26.9814 41.8613 26.9296C41.9087 26.8778 41.9454 26.8173 41.969 26.7516C41.9927 26.6859 42.003 26.6162 41.9993 26.5466C41.9955 26.477 41.9779 26.4088 41.9473 26.3459C41.9168 26.283 41.8739 26.2266 41.8211 26.18C41.7684 26.1333 41.7068 26.0974 41.6399 26.0741L41.6396 26.0744ZM39.1081 26.6012C38.9667 26.6008 38.8263 26.578 38.6923 26.5335C38.5774 26.4955 38.4528 26.4966 38.3386 26.5368C38.2244 26.5769 38.1274 26.6536 38.0631 26.7546C37.964 26.91 37.8359 27.0456 37.6855 27.1543C37.6815 27.1574 37.6766 27.1595 37.6726 27.1625C37.4938 27.288 37.2886 27.3725 37.0721 27.4095C36.8556 27.4466 36.6334 27.4354 36.422 27.3767C36.2105 27.318 36.0152 27.2133 35.8505 27.0704C35.6858 26.9275 35.556 26.75 35.4705 26.5512C35.3851 26.3523 35.3463 26.1371 35.357 25.9215C35.3677 25.7059 35.4277 25.4954 35.5324 25.3057C35.6371 25.1159 35.784 24.9517 35.9621 24.8252C36.1401 24.6988 36.3449 24.6133 36.5612 24.5751C36.7004 24.5503 36.8241 24.4729 36.9059 24.3595C36.9877 24.2462 37.021 24.1058 36.9986 23.9686C36.9652 23.7716 37.0102 23.5695 37.1242 23.4042C37.2383 23.2389 37.4126 23.123 37.6113 23.0804C37.8099 23.0379 38.0176 23.072 38.1913 23.1756C38.3651 23.2793 38.4916 23.4446 38.5447 23.6374C38.5763 23.7491 38.6444 23.8476 38.7383 23.9177C38.8323 23.9879 38.9471 24.0259 39.0652 24.0259C39.0748 24.0259 39.0961 24.0259 39.118 24.0238C39.466 24.0248 39.7993 24.1617 40.0445 24.4041C40.2898 24.6466 40.427 24.9749 40.4259 25.3167C40.4248 25.6585 40.2855 25.9859 40.0386 26.2269C39.7918 26.4678 39.4576 26.6026 39.1097 26.6015L39.1081 26.6012Z" fill="#78C081"/>
</svg>
