<svg width="70" height="40" viewBox="0 0 70 40" fill="none" xmlns="http://www.w3.org/2000/svg">
<rect x="0.5" y="0.5" width="69" height="39" rx="19.5" stroke="#78C081"/>
<g clip-path="url(#clip0_106_997)">
<path d="M48.6163 13.8852L35.3942 6.10728C35.1507 5.96458 34.8493 5.96458 34.6058 6.10728L21.3837 13.8852C21.1458 14.0247 21 14.2799 21 14.5556V33.2223C21 33.6518 21.3483 34.0002 21.7779 34.0002H28.8257C29.2345 33.9999 29.5731 33.6835 29.601 33.2756C29.7036 31.5176 30.1818 29.8021 31.0033 28.2446C31.8717 28.8282 32.8777 29.1737 33.9213 29.2464C34.0991 29.26 34.2748 29.2672 34.4486 29.2672C36.0519 29.2842 37.5925 28.6451 38.7128 27.4981C39.5684 26.3539 39.962 24.9298 39.8156 23.5087C39.7943 22.1136 39.7729 20.6704 41.773 18.271C41.9561 18.0508 42.0037 17.748 41.8966 17.4823C41.7898 17.2168 41.5454 17.0314 41.2609 16.9995C36.4301 16.458 30.934 18.817 29.2587 22.1407C28.4022 23.7571 28.6372 25.7353 29.848 27.1064C28.9106 28.7468 28.1906 30.1204 28 32L23 32V15L35 8.00002L47 15V32L32.6667 32C32.2371 32 31.8293 32.5 31.8293 33C31.8293 33.5 32.2371 34.0002 32.6667 34.0002H48.2221C48.6517 34.0002 49 33.6518 49 33.2223V14.5556C49 14.2799 48.8542 14.0247 48.6163 13.8852ZM30.6469 22.8408C31.7538 20.6465 35.5665 18.5168 39.6766 18.4749C38.6313 19.9449 38.1306 21.7331 38.2599 23.5321C38.3952 24.572 38.1377 25.625 37.5376 26.4852C36.6067 27.3824 35.3281 27.8251 34.0415 27.6952C33.2509 27.6442 32.4875 27.385 31.8293 26.9438C32.559 25.9788 33.4981 25.1924 34.5762 24.6435C34.9604 24.4512 35.1162 23.9841 34.924 23.5999C34.732 23.2156 34.2646 23.0598 33.8803 23.2521C32.69 23.8599 31.6418 24.713 30.8047 25.7549C30.208 24.8907 30.1471 23.7645 30.6469 22.8408Z" fill="#78C081"/>
</g>
<defs>
<clipPath id="clip0_106_997">
<rect width="28" height="28" fill="white" transform="translate(21 6)"/>
</clipPath>
</defs>
</svg>
