<svg width="70" height="40" viewBox="0 0 70 40" fill="none" xmlns="http://www.w3.org/2000/svg">
<rect x="0.5" y="0.5" width="69" height="39" rx="19.5" stroke="#78C081"/>
<g clip-path="url(#clip0_106_1000)">
<path fill-rule="evenodd" clip-rule="evenodd" d="M29.5813 11.3207C30.5537 9.35644 32.6136 8 35 8C37.3863 8 39.4461 9.35641 40.4185 11.3205C40.6691 11.2968 40.9231 11.2847 41.1797 11.2847C45.4987 11.2847 49 14.7031 49 18.9199C49 23.1366 45.4987 26.555 41.1797 26.555H39.3499C39.7197 27.9981 39.3267 29.5892 38.1709 30.7177C36.4196 32.4274 33.5803 32.4274 31.8291 30.7177C30.6733 29.5892 30.2803 27.9981 30.6501 26.555H28.8203C24.5012 26.555 21 23.1366 21 18.9199C21 14.7031 24.5012 11.2847 28.8203 11.2847C29.077 11.2847 29.3309 11.2969 29.5813 11.3207ZM32.5659 26.185C32.5714 26.1765 32.5768 26.1679 32.5821 26.1592C32.6952 25.9813 32.8309 25.8131 32.9892 25.6586C33.898 24.7712 35.2691 24.6101 36.3458 25.1752L32.494 28.9358C32.0208 28.0764 32.0448 27.0249 32.5659 26.185ZM33.6541 30.0684C34.7308 30.6335 36.1019 30.4724 37.0108 29.585C37.9197 28.6977 38.0847 27.3591 37.5059 26.3078L33.6541 30.0684ZM38.5557 24.9532C38.4385 24.8048 38.3102 24.662 38.1709 24.526C36.4196 22.8162 33.5803 22.8162 31.8291 24.526C31.6897 24.662 31.5614 24.8048 31.4443 24.9532H28.8203C25.4073 24.9532 22.6406 22.252 22.6406 18.9199C22.6406 15.5877 25.4073 12.8865 28.8203 12.8865C29.2051 12.8865 29.5813 12.9211 29.9464 12.9866C30.344 13.058 30.7357 12.8359 30.8691 12.4632C31.4661 10.7959 33.0912 9.60178 35 9.60178C36.9086 9.60178 38.5337 10.7958 39.1307 12.463C39.2642 12.8356 39.6558 13.0577 40.0535 12.9863C40.4181 12.9208 40.7944 12.8865 41.1797 12.8865C44.5926 12.8865 47.3594 15.5877 47.3594 18.9199C47.3594 22.252 44.5926 24.9532 41.1797 24.9532H38.5557ZM35 16.5189C34.5507 16.5189 34.1797 16.8811 34.1797 17.3198V19.4555C34.1797 19.8941 34.5506 20.2563 35 20.2563C35.4493 20.2563 35.8203 19.894 35.8203 19.4555V17.3198C35.8203 16.8811 35.4493 16.5189 35 16.5189ZM32.539 17.3198C32.539 15.9965 33.6446 14.9171 35 14.9171C36.3554 14.9171 37.4609 15.9965 37.4609 17.3198V19.4555C37.4609 20.7787 36.3553 21.8581 35 21.8581C33.6446 21.8581 32.539 20.7788 32.539 19.4555V17.3198ZM26.6328 17.3198C26.6328 15.9952 27.7371 14.9171 29.0937 14.9171H30.7344C31.1874 14.9171 31.5547 15.2757 31.5547 15.718C31.5547 16.1603 31.1874 16.5189 30.7344 16.5189H29.0937C28.6432 16.5189 28.2734 16.8799 28.2734 17.3198V19.4553C28.2734 19.8952 28.6432 20.2562 29.0937 20.2562H30.6797C31.1327 20.2562 31.5 20.6148 31.5 21.0571C31.5 21.4994 31.1327 21.858 30.6797 21.858H29.0937C27.7371 21.858 26.6328 20.7799 26.6328 19.4553V17.3198ZM40.6313 19.0604C40.4905 19.0208 40.2332 19.0005 39.8334 19.1051C39.3958 19.2196 38.946 18.966 38.8287 18.5388C38.7115 18.1115 38.9712 17.6724 39.4088 17.5579C40.608 17.2442 41.7361 17.4973 42.2403 18.387C42.65 19.1101 42.4565 19.9363 41.9004 20.5206H42.6289C43.0819 20.5206 43.4492 20.8792 43.4492 21.3215C43.4492 21.7638 43.0819 22.1224 42.6289 22.1224H39.3476C38.9878 22.1224 38.67 21.8935 38.5639 21.5578C38.4577 21.2222 38.5879 20.8582 38.8851 20.6601L40.5746 19.5337L40.5746 19.5337C40.7294 19.4305 40.7873 19.3271 40.8061 19.2673C40.8248 19.2082 40.8128 19.1766 40.8047 19.1624C40.7985 19.1514 40.7651 19.098 40.6313 19.0604Z" fill="#78C081"/>
</g>
<defs>
<clipPath id="clip0_106_1000">
<rect width="28" height="24" fill="white" transform="translate(21 8)"/>
</clipPath>
</defs>
</svg>
