<svg width="22" height="22" viewBox="0 0 22 22" fill="none" xmlns="http://www.w3.org/2000/svg">
<g clip-path="url(#clip0_1_9829)">
<circle cx="11" cy="11" r="11" fill="#78C081"/>
<path d="M18.7782 3.2218C16.7005 1.14417 13.9382 0 11 0C8.0618 0 5.29947 1.14417 3.2218 3.2218C1.14413 5.29942 0 8.0618 0 11C0 13.9382 1.14417 16.7005 3.2218 18.7782C5.29942 20.8559 8.0618 22 11 22C13.9382 22 16.7005 20.8558 18.7782 18.7782C20.8559 16.7006 22 13.9382 22 11C22 8.0618 20.8558 5.29947 18.7782 3.2218ZM18.2921 18.2921C16.3443 20.2398 13.7546 21.3125 11 21.3125C8.24545 21.3125 5.65572 20.2398 3.70795 18.2921C1.76017 16.3443 0.6875 13.7546 0.6875 11C0.6875 8.24545 1.76017 5.65572 3.70795 3.70795C5.65572 1.76017 8.24545 0.6875 11 0.6875C13.7546 0.6875 16.3443 1.76017 18.2921 3.70795C20.2398 5.65572 21.3125 8.24545 21.3125 11C21.3125 13.7546 20.2398 16.3443 18.2921 18.2921Z" fill="#577A5B"/>
<path d="M17.4819 4.51808C15.7505 2.78673 13.4485 1.83325 11 1.83325C8.55154 1.83325 6.2496 2.78673 4.5182 4.51808C2.78681 6.24944 1.83337 8.55142 1.83337 10.9999C1.83337 13.4484 2.78685 15.7504 4.5182 17.4818C6.24956 19.2131 8.55154 20.1666 11 20.1666C13.4485 20.1666 15.7505 19.2131 17.4819 17.4818C19.2133 15.7504 20.1667 13.4484 20.1667 10.9999C20.1667 8.55142 19.2132 6.24947 17.4819 4.51808ZM17.0768 17.0766C15.4536 18.6998 13.2955 19.5937 11 19.5937C8.70458 19.5937 6.54647 18.6998 4.92333 17.0766C3.30018 15.4535 2.40629 13.2954 2.40629 10.9999C2.40629 8.70446 3.30018 6.54635 4.92333 4.92321C6.54647 3.30006 8.70458 2.40617 11 2.40617C13.2955 2.40617 15.4536 3.30006 17.0768 4.92321C18.6999 6.54635 19.5938 8.70446 19.5938 10.9999C19.5938 13.2954 18.6999 15.4535 17.0768 17.0766Z" fill="#577A5B"/>
<path d="M11 5.01302C11.1741 5.01302 11.3151 4.87193 11.3151 4.69792V3.7526C11.3151 3.57859 11.1741 3.4375 11 3.4375C10.826 3.4375 10.6849 3.57859 10.6849 3.7526V4.69792C10.6849 4.87193 10.826 5.01302 11 5.01302Z" fill="#577A5B"/>
<path d="M10.6849 17.3022V18.2475C10.6849 18.4215 10.826 18.5626 11 18.5626C11.1741 18.5626 11.3151 18.4215 11.3151 18.2475V17.3022C11.3151 17.1281 11.1741 16.9871 11 16.9871C10.826 16.9871 10.6849 17.1281 10.6849 17.3022Z" fill="#577A5B"/>
<path d="M5.01302 10.9999C5.01302 10.8259 4.87193 10.6848 4.69792 10.6848H3.7526C3.57859 10.6848 3.4375 10.8259 3.4375 10.9999C3.4375 11.1739 3.57859 11.315 3.7526 11.315H4.69792C4.87193 11.315 5.01302 11.1739 5.01302 10.9999Z" fill="#577A5B"/>
<path d="M16.9869 10.9999C16.9869 11.1739 17.128 11.315 17.302 11.315H18.2474C18.4214 11.315 18.5625 11.1739 18.5625 10.9999C18.5625 10.8259 18.4214 10.6848 18.2474 10.6848H17.302C17.128 10.6848 16.9869 10.8259 16.9869 10.9999Z" fill="#577A5B"/>
<path d="M8.12184 5.38471L7.64918 4.56603C7.56217 4.41529 7.36945 4.36373 7.21875 4.4507C7.06805 4.53771 7.01641 4.73044 7.10342 4.88114L7.57608 5.69982C7.63445 5.80089 7.74037 5.85741 7.84927 5.85741C7.90272 5.85741 7.95692 5.84378 8.00655 5.81514C8.15721 5.72814 8.20885 5.53541 8.12184 5.38471Z" fill="#577A5B"/>
<path d="M14.424 16.3001C14.337 16.1494 14.1442 16.0979 13.9935 16.1848C13.8428 16.2718 13.7912 16.4645 13.8782 16.6152L14.3509 17.4339C14.4092 17.535 14.5151 17.5915 14.6241 17.5915C14.6775 17.5915 14.7317 17.5779 14.7813 17.5492C14.932 17.4622 14.9837 17.2695 14.8967 17.1188L14.424 16.3001Z" fill="#577A5B"/>
<path d="M4.72387 14.9388C4.77732 14.9388 4.83152 14.9252 4.88114 14.8966L5.69982 14.4239C5.85052 14.3369 5.90216 14.1442 5.81515 13.9935C5.72814 13.8428 5.53538 13.7912 5.38472 13.8782L4.56604 14.3508C4.41534 14.4378 4.3637 14.6306 4.45071 14.7813C4.50905 14.8823 4.61496 14.9388 4.72387 14.9388Z" fill="#577A5B"/>
<path d="M16.458 8.16419C16.5114 8.16419 16.5656 8.15056 16.6153 8.12193L17.434 7.64927C17.5847 7.56226 17.6363 7.36954 17.5493 7.21884C17.4623 7.06814 17.2696 7.01658 17.1189 7.10351L16.3002 7.57617C16.1495 7.66317 16.0978 7.8559 16.1848 8.0066C16.2432 8.10767 16.3491 8.16419 16.458 8.16419Z" fill="#577A5B"/>
<path d="M14.7813 4.45074C14.6306 4.36369 14.4379 4.41533 14.3509 4.56607L13.8782 5.38475C13.7912 5.53545 13.8428 5.72817 13.9935 5.81518C14.0432 5.84385 14.0973 5.85744 14.1508 5.85744C14.2597 5.85744 14.3656 5.80092 14.424 5.69985L14.8967 4.88117C14.9836 4.73047 14.932 4.53775 14.7813 4.45074Z" fill="#577A5B"/>
<path d="M8.00651 16.1848C7.85581 16.0978 7.66309 16.1495 7.57608 16.3002L7.10342 17.1189C7.01641 17.2696 7.06805 17.4623 7.21875 17.5493C7.26838 17.578 7.32254 17.5915 7.37603 17.5915C7.48493 17.5915 7.59085 17.535 7.64922 17.434L8.12188 16.6153C8.20885 16.4646 8.15721 16.2719 8.00651 16.1848Z" fill="#577A5B"/>
<path d="M16.3002 14.424L17.1188 14.8966C17.1685 14.9253 17.2226 14.9389 17.2761 14.9389C17.385 14.9389 17.4909 14.8824 17.5493 14.7813C17.6363 14.6306 17.5847 14.4379 17.434 14.3509L16.6153 13.8782C16.4646 13.7912 16.2719 13.8429 16.1849 13.9935C16.0978 14.1442 16.1495 14.337 16.3002 14.424Z" fill="#577A5B"/>
<path d="M5.69982 7.57597L4.88114 7.10332C4.73045 7.01627 4.53772 7.06795 4.45071 7.21865C4.3637 7.36934 4.41534 7.56207 4.56604 7.64908L5.38472 8.12173C5.43435 8.15041 5.48851 8.164 5.542 8.164C5.6509 8.164 5.75682 8.10748 5.81519 8.00641C5.90216 7.85571 5.85052 7.66298 5.69982 7.57597Z" fill="#577A5B"/>
<path d="M13.1936 15.1142C13.247 15.1142 13.3012 15.1006 13.3509 15.0719C13.5016 14.9849 13.5532 14.7922 13.4662 14.6415L11.7182 11.6138C11.8596 11.4485 11.9453 11.2342 11.9453 11.0001C11.9453 10.5893 11.6818 10.239 11.3151 10.109V5.95841C11.3151 5.7844 11.174 5.64331 11 5.64331C10.826 5.64331 10.6849 5.7844 10.6849 5.95841V10.109C10.3182 10.239 10.0547 10.5893 10.0547 11.0001C10.0547 11.5213 10.4787 11.9454 11 11.9454C11.059 11.9454 11.1166 11.9397 11.1726 11.9293L12.9204 14.9566C12.9788 15.0577 13.0847 15.1142 13.1936 15.1142ZM10.6849 11.0001C10.6849 10.8263 10.8263 10.685 11 10.685C11.1737 10.685 11.3151 10.8263 11.3151 11.0001C11.3151 11.1738 11.1737 11.3152 11 11.3152C10.8263 11.3152 10.6849 11.1738 10.6849 11.0001Z" fill="#577A5B"/>
</g>
<defs>
<clipPath id="clip0_1_9829">
<rect width="22" height="22" fill="white"/>
</clipPath>
</defs>
</svg>
