<svg width="49" height="60" viewBox="0 0 49 60" fill="none" xmlns="http://www.w3.org/2000/svg">
<path d="M33.8787 39.4465C31.14 42.1972 31.4823 47.7478 31.4823 47.7478H17.5929C17.5929 47.7478 17.8864 42.1972 15.1965 39.4465C12.2133 36.7941 10.3059 32.9627 10.3059 28.6893C10.3059 20.8301 16.6637 14.4446 24.4887 14.4446C32.3137 14.4446 38.6715 20.8301 38.6715 28.6893C38.6715 32.9627 36.8131 36.7941 33.8787 39.4465Z" fill="#C3FF17"/>
<path d="M31.8741 52.1194C31.8741 52.8562 31.2872 53.4457 30.5536 53.4457H18.4738C17.7402 53.4457 17.1533 52.8562 17.1533 52.1194C17.1533 51.3827 17.7402 50.7932 18.4738 50.7932H30.5047C31.2383 50.7932 31.8741 51.3827 31.8741 52.1194Z" fill="#D9FADD"/>
<path d="M30.0642 57.6209C30.0642 58.3577 29.4773 58.9471 28.7437 58.9471H20.2829C19.5493 58.9471 18.9625 58.3577 18.9625 57.6209C18.9625 56.8841 19.5493 56.2947 20.2829 56.2947H28.7437C29.4773 56.2947 30.0642 56.8841 30.0642 57.6209Z" fill="#D9FADD"/>
<path d="M34.6131 39.9377C37.792 37.0396 39.6015 32.9627 39.6015 28.6892C39.6015 20.3389 32.8035 13.5112 24.4895 13.5112C16.1754 13.5112 9.37743 20.3389 9.37743 28.6892C9.37743 33.0609 11.2848 37.2361 14.5126 40.085C16.909 42.4919 16.6645 47.6003 16.6645 47.6495C16.6645 47.8951 16.7623 48.1406 16.909 48.3371C17.1046 48.5336 17.3491 48.6318 17.5937 48.6318H31.4342C31.6787 48.6318 31.9232 48.5336 32.1188 48.3371C32.3145 48.1406 32.3634 47.8951 32.3634 47.6495C32.3634 47.6003 32.1188 42.4919 34.5153 40.085C34.5642 40.0359 34.6131 39.9868 34.6131 39.9377ZM33.2437 38.7097C33.1459 38.7588 33.097 38.857 33.0481 38.9553C30.8962 41.2639 30.5538 45.0461 30.5049 46.8144H18.5229C18.474 44.997 18.0827 41.0674 15.7841 38.7588C12.8987 36.2046 11.2359 32.5697 11.2359 28.7384C11.2359 21.3704 17.2024 15.4269 24.4895 15.4269C31.8254 15.4269 37.7431 21.4195 37.7431 28.7384C37.7431 32.5206 36.1292 36.2046 33.2437 38.7097Z" fill="#5CCD6A"/>
<path d="M24.4893 17.4408C24.0002 17.4408 23.5601 17.8338 23.5601 18.3741C23.5601 18.8653 23.9513 19.3073 24.4893 19.3073C29.9668 19.3073 34.4172 23.7772 34.4172 29.2787C34.4172 29.7699 34.8085 30.2119 35.3465 30.2119C35.8355 30.2119 36.2757 29.819 36.2757 29.2787C36.2757 22.7457 30.9938 17.4408 24.4893 17.4408Z" fill="#5CCD6A"/>
<path d="M32.8031 52.1194C32.8031 50.8423 31.776 49.8599 30.5534 49.8599H18.4735C17.202 49.8599 16.2238 50.8914 16.2238 52.1194C16.2238 53.3965 17.2509 54.3789 18.4735 54.3789H30.5045C31.776 54.3789 32.8031 53.3965 32.8031 52.1194ZM30.5045 52.5123H18.4735C18.229 52.5123 18.0823 52.3158 18.0823 52.1194C18.0823 51.8738 18.2779 51.7264 18.4735 51.7264H30.5045C30.749 51.7264 30.8957 51.9229 30.8957 52.1194C30.9446 52.365 30.749 52.5123 30.5045 52.5123Z" fill="#5CCD6A"/>
<path d="M28.744 55.3613H20.2832C19.0116 55.3613 18.0335 56.3928 18.0335 57.6208C18.0335 58.8979 19.0605 59.8803 20.2832 59.8803H28.744C30.0155 59.8803 30.9937 58.8488 30.9937 57.6208C30.9937 56.3928 29.9666 55.3613 28.744 55.3613ZM28.744 58.0138H20.2832C20.0387 58.0138 19.8919 57.8173 19.8919 57.6208C19.8919 57.3752 20.0876 57.2279 20.2832 57.2279H28.744C28.9885 57.2279 29.1352 57.4244 29.1352 57.6208C29.1352 57.8664 28.9885 58.0138 28.744 58.0138Z" fill="#5CCD6A"/>
<path d="M25.4185 8.05898V1.77165C25.4185 1.28046 25.0272 0.838379 24.4893 0.838379C24.0002 0.838379 23.5601 1.23134 23.5601 1.77165V8.1081C23.5601 8.5993 23.9513 9.04138 24.4893 9.04138C25.0272 8.99226 25.4185 8.5993 25.4185 8.05898Z" fill="#5CCD6A"/>
<path d="M39.8946 5.50471C39.4544 5.20999 38.9165 5.35735 38.623 5.75031L35.1507 11.0061C34.8572 11.4482 35.004 11.9885 35.3952 12.2832C35.5419 12.3815 35.7375 12.4306 35.8843 12.4306C36.1777 12.4306 36.4711 12.2832 36.6668 12.0376L40.1391 6.78182C40.4326 6.38887 40.2858 5.79943 39.8946 5.50471Z" fill="#5CCD6A"/>
<path d="M13.4364 12.2342C13.5831 12.2342 13.7787 12.1851 13.9255 12.0868C14.3656 11.7921 14.4634 11.2518 14.2189 10.8097L10.8444 5.50478C10.5509 5.0627 10.013 4.96446 9.5728 5.21006C9.13264 5.50478 9.03483 6.0451 9.27936 6.48718L12.6539 11.7921C12.8495 12.0868 13.143 12.2342 13.4364 12.2342Z" fill="#5CCD6A"/>
<path d="M0.476266 16.6549L6.00268 19.6512C6.14939 19.7494 6.29611 19.7494 6.44283 19.7494C6.78517 19.7494 7.07861 19.553 7.27424 19.2583C7.51877 18.8162 7.37205 18.2267 6.88299 17.9811L1.35658 14.9848C0.916423 14.7392 0.329548 14.8866 0.0850165 15.3778C-0.110609 15.869 0.0361099 16.4093 0.476266 16.6549Z" fill="#5CCD6A"/>
<path d="M42.5354 19.7986C42.6821 19.7986 42.8288 19.7495 42.9756 19.7004L48.502 16.7041C48.9421 16.4585 49.1377 15.9181 48.8932 15.427C48.6487 14.9849 48.1107 14.7884 47.6217 15.034L42.0952 18.0303C41.6551 18.2759 41.4595 18.8162 41.704 19.3074C41.8507 19.6021 42.1931 19.7986 42.5354 19.7986Z" fill="#5CCD6A"/>
</svg>
