<svg width="50" height="51" viewBox="0 0 50 51" fill="none" xmlns="http://www.w3.org/2000/svg">
<path d="M29.7992 15.3575C29.7992 17.2414 29.4411 18.977 28.8392 20.3669C29.1897 20.6129 29.5154 20.8913 29.8123 21.1984L38.3364 12.6682C34.9712 9.2606 30.3118 7.13672 25.156 7.0946C27.7243 7.13682 29.7992 10.8192 29.7992 15.3575Z" fill="#D9FADD"/>
<path d="M14.1882 29.8837C15.5192 28.5517 16.9987 27.5779 18.4064 27.0209C18.3401 26.6424 18.3035 26.2535 18.3035 25.856C18.3035 25.8185 18.3058 25.7816 18.3063 25.7443H6.25137C6.25117 25.7817 6.25 25.8187 6.25 25.8561C6.25 30.9826 8.30527 35.628 11.6353 39.0146C9.84551 37.1686 10.98 33.0943 14.1882 29.8837Z" fill="#D9FADD"/>
<path d="M20.2009 36.3545C20.2009 34.4708 20.559 32.7351 21.1609 31.3451C20.8104 31.0991 20.4847 30.8207 20.1878 30.5137L11.6637 39.0438C15.0288 42.4514 19.6883 44.5753 24.8441 44.6174C22.2758 44.5753 20.2009 40.8929 20.2009 36.3545Z" fill="#D9FADD"/>
<path d="M20.9752 15.0366C22.3063 16.3686 23.2793 17.8491 23.8361 19.2579C24.2143 19.1915 24.6029 19.1549 25.0001 19.1549C25.0376 19.1549 25.0745 19.1571 25.1118 19.1577V7.09414C25.0744 7.09395 25.0374 7.09277 25 7.09277C19.8772 7.09277 15.235 9.14951 11.8508 12.4819C13.6956 10.6908 17.7669 11.8261 20.9752 15.0366Z" fill="#D9FADD"/>
<path d="M14.5089 21.0535C16.3913 21.0535 18.1257 21.4119 19.5147 22.0142C19.7605 21.6634 20.0388 21.3374 20.3456 21.0404L11.8215 12.5103C8.41628 15.8778 6.29392 20.5406 6.25183 25.7C6.29402 23.1299 9.9738 21.0535 14.5089 21.0535Z" fill="#D9FADD"/>
<path d="M35.4911 30.6587C33.6087 30.6587 31.8742 30.3003 30.4853 29.698C30.2395 30.0488 29.9612 30.3747 29.6544 30.6718L38.1785 39.2019C41.5837 35.8344 43.7061 31.1716 43.7482 26.0122C43.706 28.5823 40.0262 30.6587 35.4911 30.6587Z" fill="#D9FADD"/>
<path d="M35.8118 21.8285C34.4807 23.1605 33.0012 24.1342 31.5935 24.6913C31.6598 25.0698 31.6964 25.4587 31.6964 25.8562C31.6964 25.8936 31.6942 25.9306 31.6936 25.9679H43.7486C43.7488 25.9306 43.75 25.8935 43.75 25.8562C43.75 20.7297 41.6947 16.0843 38.3648 12.6978C40.1544 14.5437 39.02 18.618 35.8118 21.8285Z" fill="#D9FADD"/>
<path d="M29.0248 36.6756C27.6938 35.3436 26.7206 33.8631 26.164 32.4543C25.7858 32.5207 25.3972 32.5573 24.9999 32.5573C24.9625 32.5573 24.9256 32.5551 24.8883 32.5545V44.6181C24.9256 44.6183 24.9626 44.6194 24.9999 44.6194C30.1228 44.6194 34.765 42.5627 38.1491 39.2304C36.3045 41.0214 32.2331 39.8861 29.0248 36.6756Z" fill="#D9FADD"/>
<path d="M35.4911 30.6586C40.0524 30.6586 43.75 28.5585 43.75 25.9678H31.6935C31.6708 27.3546 31.2275 28.6384 30.4851 29.698C31.8742 30.3002 33.6085 30.6586 35.4911 30.6586Z" fill="#C3FF17"/>
<path d="M35.8119 21.8285C39.0372 18.6009 40.1678 14.4993 38.3373 12.6675L29.8123 21.1986C30.722 22.1396 31.3579 23.3463 31.5936 24.6913C33.0012 24.1342 34.4808 23.1605 35.8119 21.8285Z" fill="#C3FF17"/>
<path d="M29.7991 15.3575C29.7991 10.793 27.7004 7.09277 25.1116 7.09277V19.1578C26.4974 19.1806 27.7803 19.6241 28.8391 20.367C29.441 18.977 29.7991 17.2414 29.7991 15.3575Z" fill="#C3FF17"/>
<path d="M20.9752 15.0366C17.7499 11.809 13.6512 10.6775 11.8207 12.5094L20.3457 21.0405C21.286 20.1301 22.4918 19.4938 23.8359 19.2578C23.2793 17.8491 22.3062 16.3686 20.9752 15.0366Z" fill="#C3FF17"/>
<path d="M14.5089 21.0536C9.94756 21.0536 6.25 23.1537 6.25 25.7444H18.3064C18.3292 24.3576 18.7725 23.0738 19.5148 22.0142C18.1258 21.4119 16.3914 21.0536 14.5089 21.0536Z" fill="#C3FF17"/>
<path d="M14.1882 29.8838C10.9629 33.1114 9.83227 37.2129 11.6628 39.0448L20.1879 30.5137C19.2782 29.5726 18.6423 28.3661 18.4066 27.021C16.9989 27.578 15.5193 28.5518 14.1882 29.8838Z" fill="#C3FF17"/>
<path d="M20.2009 36.3546C20.2009 40.9192 22.2996 44.6195 24.8884 44.6195V32.5544C23.5026 32.5317 22.2197 32.0881 21.1609 31.3451C20.5591 32.7352 20.2009 34.4708 20.2009 36.3546Z" fill="#C3FF17"/>
<path d="M29.0248 36.6756C32.2501 39.9032 36.3487 41.0347 38.1793 39.2028L29.6543 30.6716C28.7139 31.582 27.5082 32.2183 26.1641 32.4542C26.7207 33.863 27.6937 35.3436 29.0248 36.6756Z" fill="#C3FF17"/>
<path d="M25.0001 19.1549C21.3018 19.1549 18.3037 22.1551 18.3037 25.8562C18.3037 29.5571 21.3018 32.5573 25.0001 32.5573C28.6984 32.5573 31.6965 29.5571 31.6965 25.8562C31.6965 22.1552 28.6984 19.1549 25.0001 19.1549Z" fill="#D9FADD"/>
<path d="M25.0002 28.0899C26.233 28.0899 27.2323 27.0898 27.2323 25.8562C27.2323 24.6225 26.233 23.6224 25.0002 23.6224C23.7674 23.6224 22.7681 24.6225 22.7681 25.8562C22.7681 27.0898 23.7674 28.0899 25.0002 28.0899Z" fill="#C3FF17"/>
<path d="M45.1172 0.838379H4.88281C2.19043 0.838379 0 3.03037 0 5.72466V45.9876C0 48.6819 2.19043 50.8739 4.88281 50.8739H45.1172C47.8096 50.8739 50 48.6819 50 45.9876V5.72466C50 3.03037 47.8096 0.838379 45.1172 0.838379ZM48.0469 45.9876C48.0469 47.6042 46.7326 48.9194 45.1172 48.9194H4.88281C3.26738 48.9194 1.95312 47.6042 1.95312 45.9876V5.72466C1.95312 4.10808 3.26738 2.79289 4.88281 2.79289H45.1172C46.7326 2.79289 48.0469 4.10808 48.0469 5.72466V45.9876Z" fill="#5CCD6A"/>
<path d="M45.0195 41.0037C44.4803 41.0037 44.043 41.4413 44.043 41.9809C44.043 43.5975 42.7287 44.9127 41.1133 44.9127C40.574 44.9127 40.1367 45.3503 40.1367 45.8899C40.1367 46.4296 40.574 46.8672 41.1133 46.8672C43.8057 46.8672 45.9961 44.6752 45.9961 41.9809C45.9961 41.4413 45.5588 41.0037 45.0195 41.0037Z" fill="#5CCD6A"/>
<path d="M41.1133 4.84509C40.574 4.84509 40.1367 5.28271 40.1367 5.82235C40.1367 6.36199 40.574 6.79961 41.1133 6.79961C42.7287 6.79961 44.043 8.1148 44.043 9.73138C44.043 10.271 44.4803 10.7086 45.0195 10.7086C45.5588 10.7086 45.9961 10.271 45.9961 9.73138C45.9961 7.03708 43.8057 4.84509 41.1133 4.84509Z" fill="#5CCD6A"/>
<path d="M4.98047 10.7086C5.51982 10.7086 5.95703 10.271 5.95703 9.73138C5.95703 8.1148 7.27129 6.79961 8.88672 6.79961C9.42607 6.79961 9.86328 6.36199 9.86328 5.82235C9.86328 5.28271 9.42607 4.84509 8.88672 4.84509C6.19434 4.84509 4.00391 7.03708 4.00391 9.73138C4.00391 10.271 4.44111 10.7086 4.98047 10.7086Z" fill="#5CCD6A"/>
<path d="M8.88672 44.9127C7.27129 44.9127 5.95703 43.5975 5.95703 41.9809C5.95703 41.4413 5.51982 41.0037 4.98047 41.0037C4.44111 41.0037 4.00391 41.4413 4.00391 41.9809C4.00391 44.6752 6.19434 46.8672 8.88672 46.8672C9.42607 46.8672 9.86328 46.4296 9.86328 45.8899C9.86328 45.3503 9.42607 44.9127 8.88672 44.9127Z" fill="#5CCD6A"/>
<path d="M41.1133 43.0558C41.7066 43.0558 42.1875 42.5746 42.1875 41.9809C42.1875 41.3872 41.7066 40.9059 41.1133 40.9059C40.52 40.9059 40.0391 41.3872 40.0391 41.9809C40.0391 42.5746 40.52 43.0558 41.1133 43.0558Z" fill="#5CCD6A"/>
<path d="M8.98438 43.0558C9.57765 43.0558 10.0586 42.5746 10.0586 41.9809C10.0586 41.3872 9.57765 40.9059 8.98438 40.9059C8.3911 40.9059 7.91016 41.3872 7.91016 41.9809C7.91016 42.5746 8.3911 43.0558 8.98438 43.0558Z" fill="#5CCD6A"/>
<path d="M41.1133 10.8063C41.7066 10.8063 42.1875 10.3251 42.1875 9.73135C42.1875 9.13766 41.7066 8.65637 41.1133 8.65637C40.52 8.65637 40.0391 9.13766 40.0391 9.73135C40.0391 10.3251 40.52 10.8063 41.1133 10.8063Z" fill="#5CCD6A"/>
<path d="M8.98438 10.8063C9.57765 10.8063 10.0586 10.3251 10.0586 9.73135C10.0586 9.13766 9.57765 8.65637 8.98438 8.65637C8.3911 8.65637 7.91016 9.13766 7.91016 9.73135C7.91016 10.3251 8.3911 10.8063 8.98438 10.8063Z" fill="#5CCD6A"/>
<path d="M38.9542 39.7962C42.4605 36.2814 44.6521 31.4539 44.7232 26.1236C44.7254 26.0719 44.7267 26.02 44.7267 25.9679C44.7267 25.9603 44.7257 25.953 44.7255 25.9455C44.7256 25.9156 44.7266 25.886 44.7266 25.8562C44.7266 20.5676 42.6372 15.7583 39.2415 12.2107C39.1737 12.1302 39.1029 12.0517 39.0276 11.9765C38.9968 11.9456 38.9639 11.9182 38.9301 11.8923C35.4178 8.38332 30.5937 6.19017 25.267 6.11902C25.2153 6.11687 25.1635 6.1156 25.1114 6.1156C25.1038 6.1156 25.0966 6.11658 25.0891 6.11677C25.0594 6.11658 25.0298 6.1156 25 6.1156C19.7166 6.1156 14.912 8.20527 11.3673 11.6015C11.2856 11.6703 11.2063 11.7423 11.1302 11.8185C11.0998 11.849 11.0725 11.8817 11.0466 11.9155C7.53984 15.4304 5.34805 20.2581 5.27695 25.5888C5.2748 25.6405 5.27354 25.6924 5.27354 25.7445C5.27354 25.7521 5.27451 25.7593 5.27471 25.7669C5.27441 25.7968 5.27344 25.8264 5.27344 25.8562C5.27344 31.1447 7.3627 35.9539 10.7583 39.5014C10.8261 39.582 10.897 39.6605 10.9723 39.7359C11.0032 39.7668 11.0361 39.7943 11.0699 39.8203C14.5822 43.329 19.4062 45.5222 24.7328 45.5933C24.7845 45.5955 24.8363 45.5968 24.8884 45.5968C24.896 45.5968 24.9033 45.5958 24.9108 45.5956C24.9406 45.5958 24.9702 45.5968 25 45.5968C30.2882 45.5968 35.0967 43.5032 38.6424 40.1014C38.7204 40.0353 38.7969 39.967 38.8699 39.8938C38.9008 39.8629 38.9282 39.83 38.9542 39.7962ZM11.8414 13.9123L18.5534 20.6291C17.3381 20.2741 15.9681 20.0764 14.5089 20.0764C11.7715 20.0764 9.34785 20.7722 7.6709 21.8974C8.36094 18.871 9.82412 16.1359 11.8414 13.9123ZM19.2802 25.8562C19.2802 22.7 21.8461 20.1323 25 20.1323C28.1539 20.1323 30.7198 22.7 30.7198 25.8562C30.7198 29.0123 28.1539 31.5801 25 31.5801C21.8461 31.5801 19.2802 29.0123 19.2802 25.8562ZM23.9118 33.456V43.3579C23.373 43.0451 22.858 42.4832 22.4231 41.7164C21.6198 40.3001 21.1774 38.3958 21.1774 36.3547C21.1774 35.0796 21.3509 33.8588 21.6763 32.7762C22.37 33.1112 23.122 33.3432 23.9118 33.456ZM17.7607 28.3972C18.023 29.1433 18.396 29.8375 18.8621 30.4585L11.8638 37.4617C11.7038 36.8594 11.7366 36.0976 11.971 35.2477C12.4038 33.6779 13.4364 32.0183 14.8787 30.575C15.78 29.6731 16.7654 28.932 17.7607 28.3972ZM17.4056 24.7672H7.51074C7.82324 24.2281 8.38477 23.7127 9.15098 23.2775C10.5663 22.4736 12.4691 22.0309 14.5089 22.0309C15.7832 22.0309 17.003 22.2047 18.0846 22.5306C17.75 23.2247 17.5182 23.977 17.4056 24.7672ZM13.4026 12.7106C14.0047 12.5505 14.7657 12.5833 15.6152 12.8179C17.184 13.2509 18.8423 14.2844 20.2846 15.7277C21.1858 16.6296 21.9258 17.6159 22.4604 18.6118C21.715 18.8743 21.0214 19.2474 20.401 19.7138L13.4026 12.7106ZM26.0882 18.2564V8.3545C26.627 8.66722 27.142 9.22914 27.5769 9.99599C28.3802 11.4122 28.8226 13.3164 28.8226 15.3576C28.8226 16.6328 28.6488 17.8534 28.3232 18.9358C27.6296 18.601 26.8778 18.369 26.0882 18.2564ZM29.599 31.9985L36.5974 39.0018C35.9953 39.1618 35.2341 39.1291 34.3848 38.8944C32.816 38.4614 31.1577 37.428 29.7154 35.9847C28.8142 35.0828 28.0746 34.0964 27.5399 33.1004C28.2852 32.8379 28.9787 32.4648 29.599 31.9985ZM32.5944 26.9451H42.4893C42.1768 27.4843 41.6152 27.9997 40.8489 28.4349C39.4337 29.2388 37.5309 29.6815 35.4911 29.6815C34.2169 29.6815 32.9971 29.5078 31.9152 29.1821C32.25 28.4879 32.4818 27.7354 32.5944 26.9451ZM31.138 21.2539L38.1362 14.2507C38.2962 14.853 38.2634 15.6148 38.029 16.4647C37.5963 18.0346 36.5636 19.6941 35.1213 21.1374C34.22 22.0393 33.2345 22.78 32.2392 23.3147C31.9769 22.5689 31.604 21.8747 31.138 21.2539ZM33.2513 24.9906C34.3617 24.3817 35.4704 23.5522 36.5024 22.5196C38.435 20.5857 39.6558 18.3828 40.0484 16.4029C41.6294 18.9142 42.6009 21.8464 42.7522 24.9906H33.2513ZM30.2233 19.405C30.5781 18.1888 30.7757 16.8178 30.7757 15.3577C30.7757 12.6184 30.0804 10.193 28.956 8.51486C31.9803 9.20539 34.7135 10.6697 36.9354 12.6883L30.2233 19.405ZM24.1351 17.5985C23.5266 16.4874 22.6976 15.3782 21.6657 14.3457C19.9883 12.667 18.0239 11.4553 16.1346 10.9338C15.9377 10.8794 15.7446 10.8357 15.5535 10.7971C18.063 9.21507 20.9931 8.24299 24.1351 8.09152V17.5985ZM16.7481 26.7217C15.6379 27.3307 14.5295 28.1603 13.4977 29.1927C11.5651 31.1267 10.3444 33.3296 9.95166 35.3094C8.3707 32.7981 7.39922 29.8659 7.24785 26.7217H16.7481ZM19.7766 32.3074C19.4218 33.5236 19.2243 34.8946 19.2243 36.3547C19.2243 39.0941 19.9196 41.5195 21.044 43.1976C18.0197 42.5071 15.2865 41.0427 13.0646 39.0241L19.7766 32.3074ZM25.8649 34.1139C26.4734 35.2249 27.3024 36.3342 28.3342 37.3667C30.2665 39.3004 32.4675 40.5226 34.4457 40.9157C31.9363 42.4975 29.0065 43.4695 25.8649 43.6208V34.1139ZM31.4466 31.0832C32.6619 31.4383 34.0319 31.636 35.491 31.636C38.2284 31.636 40.6521 30.9402 42.329 29.815C41.639 32.8414 40.1757 35.5766 38.1585 37.8001L31.4466 31.0832Z" fill="#5CCD6A"/>
<path d="M28.2089 25.8457C28.2031 24.0752 26.7589 22.6394 24.9897 22.6452C23.2204 22.6509 21.7857 24.0961 21.7915 25.8667C21.7973 27.6372 23.2414 29.073 25.0107 29.0672C26.78 29.0613 28.2148 27.6162 28.2089 25.8457ZM23.7446 25.8602C23.7424 25.1674 24.3038 24.6019 24.9961 24.5997C25.6885 24.5974 26.2535 25.1592 26.2558 25.852C26.258 26.5448 25.6966 27.1103 25.0043 27.1126C24.312 27.1148 23.7469 26.5531 23.7446 25.8602Z" fill="#5CCD6A"/>
</svg>
