<svg width="46" height="46" viewBox="0 0 46 46" fill="none" xmlns="http://www.w3.org/2000/svg">
<rect opacity="0.25" width="46" height="46" rx="23" transform="matrix(-1 0 0 1 46 0)" fill="#78C081"/>
<g clip-path="url(#clip0_1_8050)" filter="url(#filter0_i_1_8050)">
<path fill-rule="evenodd" clip-rule="evenodd" d="M23 6C32.3889 6 40 13.6111 40 23C40 32.3886 32.3889 40 23 40C13.6111 40 6 32.3886 6 23C6 13.6111 13.6111 6 23 6ZM18.0881 24.3651C17.9935 24.3042 17.9026 24.2342 17.8198 24.1514C17.5027 23.8342 17.3501 23.4171 17.3576 23.0017C17.3504 22.5861 17.5033 22.1687 17.8202 21.8518C17.9027 21.7689 17.9936 21.6989 18.0882 21.6381L24.4401 15.2865C25.0601 14.6673 26.0651 14.6669 26.685 15.2869C27.305 15.9066 27.305 16.9115 26.685 17.5318L21.215 23.0018L26.7127 28.5003C27.3326 29.12 27.3326 30.1253 26.7127 30.7452C26.4026 31.0553 25.9966 31.2102 25.5905 31.2102C25.1843 31.2102 24.7781 31.0553 24.4682 30.7452L18.0881 24.3651Z" fill="#5CCD6A"/>
<path d="M17.8198 24.1514C17.9026 24.2342 17.9935 24.3042 18.0881 24.3651L24.4682 30.7452C24.7781 31.0553 25.1843 31.2102 25.5905 31.2102C25.9966 31.2102 26.4026 31.0553 26.7127 30.7452C27.3326 30.1253 27.3326 29.12 26.7127 28.5003L21.215 23.0018L26.685 17.5318C27.305 16.9115 27.305 15.9066 26.685 15.2869C26.0651 14.6669 25.0601 14.6673 24.4401 15.2865L18.0882 21.6381C17.9936 21.6989 17.9027 21.7689 17.8202 21.8518C17.5033 22.1687 17.3504 22.5861 17.3576 23.0017C17.3501 23.4171 17.5027 23.8342 17.8198 24.1514Z" fill="white"/>
</g>
<defs>
<filter id="filter0_i_1_8050" x="6" y="4" width="36" height="36" filterUnits="userSpaceOnUse" color-interpolation-filters="sRGB">
<feFlood flood-opacity="0" result="BackgroundImageFix"/>
<feBlend mode="normal" in="SourceGraphic" in2="BackgroundImageFix" result="shape"/>
<feColorMatrix in="SourceAlpha" type="matrix" values="0 0 0 0 0 0 0 0 0 0 0 0 0 0 0 0 0 0 127 0" result="hardAlpha"/>
<feOffset dx="2" dy="-2"/>
<feGaussianBlur stdDeviation="2.5"/>
<feComposite in2="hardAlpha" operator="arithmetic" k2="-1" k3="1"/>
<feColorMatrix type="matrix" values="0 0 0 0 0.112937 0 0 0 0 0.3625 0 0 0 0 0.107844 0 0 0 0.2 0"/>
<feBlend mode="normal" in2="shape" result="effect1_innerShadow_1_8050"/>
</filter>
<clipPath id="clip0_1_8050">
<rect width="34" height="34" fill="white" transform="matrix(-1 0 0 1 40 6)"/>
</clipPath>
</defs>
</svg>
