<svg width="46" height="46" viewBox="0 0 46 46" fill="none" xmlns="http://www.w3.org/2000/svg">
<rect opacity="0.6" width="46" height="46" rx="23" transform="matrix(-1 0 0 1 46 0)" fill="white"/>
<g clip-path="url(#clip0_1_8032)">
<path fill-rule="evenodd" clip-rule="evenodd" d="M23 6C13.6111 6 6 13.6111 6 23C6 32.3886 13.6111 40 23 40C32.3889 40 40 32.3886 40 23C40 13.6111 32.3889 6 23 6ZM27.9119 24.3651C28.0065 24.3042 28.0974 24.2342 28.1802 24.1514C28.4973 23.8342 28.6499 23.4171 28.6424 23.0017C28.6496 22.5861 28.4967 22.1687 28.1798 21.8518C28.0973 21.7689 28.0064 21.6989 27.9118 21.6381L21.5599 15.2865C20.9399 14.6673 19.9349 14.6669 19.315 15.2869C18.695 15.9066 18.695 16.9115 19.315 17.5318L24.785 23.0018L19.2873 28.5003C18.6674 29.12 18.6674 30.1253 19.2873 30.7452C19.5974 31.0553 20.0034 31.2102 20.4095 31.2102C20.8157 31.2102 21.2219 31.0553 21.5318 30.7452L27.9119 24.3651Z" fill="white"/>
<path d="M28.1802 24.1514C28.0974 24.2342 28.0065 24.3042 27.9119 24.3651L21.5318 30.7452C21.2219 31.0553 20.8157 31.2102 20.4095 31.2102C20.0034 31.2102 19.5974 31.0553 19.2873 30.7452C18.6674 30.1253 18.6674 29.12 19.2873 28.5003L24.785 23.0018L19.315 17.5318C18.695 16.9115 18.695 15.9066 19.315 15.2869C19.9349 14.6669 20.9399 14.6673 21.5599 15.2865L27.9118 21.6381C28.0064 21.6989 28.0973 21.7689 28.1798 21.8518C28.4967 22.1687 28.6496 22.5861 28.6424 23.0017C28.6499 23.4171 28.4973 23.8342 28.1802 24.1514Z" fill="#D9FADD"/>
</g>
<defs>
<clipPath id="clip0_1_8032">
<rect width="34" height="34" fill="white" transform="translate(6 6)"/>
</clipPath>
</defs>
</svg>
