<svg width="32" height="32" viewBox="0 0 32 32" fill="none" xmlns="http://www.w3.org/2000/svg">
<g clip-path="url(#clip0_229_5)">
<path d="M31.4621 24.9691C31.4568 24.9618 31.4435 24.9444 31.4163 24.9169C31.3619 24.8618 31.2747 24.789 31.1451 24.6985C30.8861 24.5179 30.5015 24.2975 29.9803 24.0372L29.9661 24.0301L29.9525 24.0221C29.6716 23.8589 29.2674 23.6348 28.7383 23.3473C28.2065 23.0586 27.723 22.7921 27.289 22.5482L31.4621 24.9691ZM31.4621 24.9691L31.4628 24.9714L31.471 24.9905C31.4709 24.9904 31.4733 24.9959 31.4766 25.0088C31.4799 25.0216 31.4837 25.0398 31.4872 25.0644C31.4943 25.1142 31.4991 25.1822 31.4989 25.2716V25.2727C31.4989 25.6279 31.4324 26.1202 31.2842 26.7624L31.2842 26.7628C31.1358 27.4086 30.9857 27.8926 30.8369 28.2292L30.8368 28.2292L30.8331 28.2379C30.7146 28.5203 30.4646 28.8512 30.0345 29.225C29.6078 29.5959 29.027 29.9892 28.2818 30.4025C26.9195 31.1412 25.592 31.5001 24.2949 31.5001C23.9082 31.5001 23.533 31.4746 23.1691 31.4254C22.811 31.3758 22.399 31.2867 21.9301 31.1548C21.4479 31.0189 21.1011 30.9126 20.8828 30.8351L20.8827 30.835C20.6527 30.7533 20.2359 30.5994 19.6296 30.3722C19.0356 30.1488 18.656 30.0092 18.5039 29.9584C17.0501 29.4385 15.7587 28.8252 14.6279 28.1204L14.626 28.1192C12.7274 26.9475 10.7537 25.3415 8.70567 23.2935C6.65772 21.2454 5.05168 19.2714 3.88044 17.3729L3.87923 17.371C3.17425 16.2398 2.56084 14.9488 2.0413 13.4948C1.99066 13.3438 1.85072 12.964 1.62795 12.3693L1.62789 12.3691C1.40043 11.7626 1.24663 11.3462 1.16516 11.1163C1.08783 10.8981 0.981538 10.5511 0.845919 10.0687L0.845868 10.0685C0.71391 9.59976 0.624826 9.18723 0.575683 8.82917L31.4621 24.9691ZM26.0383 21.8235L26.0175 21.8079C25.967 21.7699 25.7887 21.6451 25.466 21.4218C25.1579 21.2094 24.9132 21.0625 24.7259 20.9719C24.5634 20.8938 24.421 20.8625 24.2948 20.8625C24.2602 20.8625 24.1764 20.8761 24.0314 20.9588C23.8888 21.0402 23.7131 21.1735 23.5036 21.3724C23.0697 21.785 22.6718 22.2331 22.3102 22.7183L22.3101 22.7184C21.9184 23.2437 21.5022 23.7303 21.0621 24.1787L21.0619 24.1789C20.8335 24.4113 20.6089 24.6031 20.3887 24.7395C20.1724 24.8734 19.9245 24.9763 19.6596 24.9763C19.4388 24.9763 19.205 24.9167 18.9753 24.8322L18.9743 24.8318C18.7629 24.7535 18.5899 24.6819 18.4616 24.619L18.4562 24.6164L18.4562 24.6163C18.3293 24.5522 18.1316 24.4362 17.8739 24.2766M26.0383 21.8235L24.9426 20.5213C24.723 20.4157 24.5069 20.3625 24.2948 20.3625C23.9918 20.3625 23.6134 20.5786 23.159 21.0101C22.7047 21.4422 22.2879 21.9115 21.9093 22.4195C21.5306 22.9273 21.129 23.3967 20.7052 23.8285C20.2808 24.2605 19.932 24.4763 19.6596 24.4763C19.5229 24.4763 19.3524 24.4382 19.148 24.3629C18.9438 24.2872 18.7884 24.2224 18.6817 24.1701C18.576 24.1167 18.3946 24.0109 18.1368 23.8513C17.8786 23.6922 17.735 23.6051 17.7048 23.5899C15.6291 22.4381 13.849 21.1199 12.364 19.6355C10.8795 18.1503 9.56112 16.3703 8.40967 14.2944C8.39455 14.2641 8.30722 14.1201 8.14826 13.8627C7.98905 13.605 7.88294 13.4234 7.82993 13.3171M26.0383 21.8235L26.0607 21.8369M26.0383 21.8235L26.0607 21.8369M17.8739 24.2766C17.8738 24.2765 17.8737 24.2765 17.8736 24.2764L18.1367 23.8515L17.8745 24.277C17.8743 24.2769 17.8741 24.2767 17.8739 24.2766ZM17.8739 24.2766C17.7453 24.1974 17.6464 24.1368 17.5763 24.0943C17.5411 24.073 17.5143 24.0569 17.4952 24.0457C17.4827 24.0383 17.4765 24.0349 17.4748 24.0339M17.4748 24.0339L17.4802 24.0366C17.4765 24.0347 17.4743 24.0336 17.4743 24.0336C17.4743 24.0336 17.4745 24.0337 17.4748 24.0339ZM17.4748 24.0339L17.4711 24.032L17.4622 24.0271C15.351 22.8556 13.5323 21.5103 12.0105 19.9892L12.0104 19.989C10.4891 18.467 9.14361 16.6484 7.97243 14.537L7.96711 14.5274L7.96513 14.5234M7.96513 14.5234C7.96534 14.5238 7.96547 14.524 7.96552 14.5241C7.96574 14.5244 7.96439 14.5219 7.96222 14.5176L7.96513 14.5234ZM7.96513 14.5234C7.96403 14.5215 7.96061 14.5154 7.95367 14.5036C7.94252 14.4846 7.92654 14.4579 7.90524 14.4228C7.86277 14.3527 7.80209 14.2537 7.72283 14.1254M7.72283 14.1254C7.72285 14.1254 7.72288 14.1255 7.7229 14.1255L8.14691 13.8635L7.72283 14.1254ZM7.72283 14.1254C7.56461 13.8693 7.44718 13.6699 7.38265 13.5406M7.38265 13.5406C7.38269 13.5406 7.38274 13.5407 7.38278 13.5408L7.82993 13.3171M7.38265 13.5406C7.38258 13.5404 7.38251 13.5403 7.38245 13.5402L7.82993 13.3171M7.38265 13.5406C7.31735 13.41 7.24554 13.2345 7.16793 13.0247C7.0827 12.7942 7.0233 12.5605 7.0233 12.3399C7.0233 12.0749 7.12624 11.827 7.26023 11.6107C7.39664 11.3905 7.58839 11.166 7.82069 10.9377L7.82075 10.9377C8.26929 10.4971 8.75637 10.0808 9.28109 9.68939L9.28124 9.68928C9.76619 9.3278 10.2142 8.92992 10.6266 8.49616L9.58007 10.0902C9.07268 10.4687 8.60287 10.8703 8.1711 11.2944C7.73926 11.7187 7.5233 12.0673 7.5233 12.3399C7.5233 12.4764 7.56127 12.6467 7.63689 12.8512C7.71251 13.0557 7.77691 13.2111 7.82993 13.3171M26.0607 21.8369C26.4435 22.0665 26.8527 22.3037 27.2889 22.5482L26.0607 21.8369ZM11.0275 7.27384L11.0273 7.27359C10.9372 7.08647 10.7904 6.84184 10.5778 6.53383C10.3552 6.2117 10.2292 6.03219 10.1907 5.98072L10.1755 5.96032L10.1624 5.93848C9.93258 5.55534 9.69563 5.14596 9.451 4.7107C9.20675 4.2762 8.94061 3.79268 8.65186 3.26107L8.65182 3.261C8.36466 2.73213 8.14021 2.32779 7.97693 2.0461L7.96918 2.03272L7.96227 2.01889C7.70181 1.49778 7.48142 1.11322 7.3008 0.854155C7.21039 0.724485 7.13753 0.637307 7.0825 0.582912C7.05499 0.555713 7.03761 0.542395 7.03028 0.537111L7.02775 0.53627L7.00847 0.528012C7.00847 0.528015 7.00318 0.525843 6.99103 0.522713C6.97827 0.519426 6.96002 0.515617 6.93535 0.512077C6.88528 0.504894 6.81717 0.5 6.72807 0.5C6.37285 0.5 5.88052 0.566661 5.23793 0.714598L5.23772 0.714646C4.59235 0.862937 4.10805 1.01345 3.77051 1.16219L3.76245 1.16574L3.76242 1.16567C3.48041 1.28405 3.14971 1.534 2.77588 1.96421C2.40502 2.391 2.0117 2.97198 1.59817 3.71737C0.859475 5.07929 0.500793 6.40667 0.500793 7.70392C0.500793 8.091 0.525891 8.46595 0.575673 8.8291L11.0275 7.27384ZM11.0275 7.27384C11.1056 7.43584 11.1368 7.57806 11.1368 7.70432C11.1368 7.73905 11.1231 7.82289 11.0405 7.96791M11.0275 7.27384L11.0405 7.96791M11.0405 7.96791C10.9591 8.11061 10.8258 8.28639 10.6267 8.49599L11.0405 7.96791Z" fill="#78C081" stroke="#577A5B"/>
</g>
<defs>
<clipPath id="clip0_229_5">
<rect width="32" height="32" fill="white"/>
</clipPath>
</defs>
</svg>
