<svg width="413" height="254" viewBox="0 0 413 254" fill="none" xmlns="http://www.w3.org/2000/svg">
<g opacity="0.5">
<path d="M298.772 244.647C299.152 240.29 298.351 235.912 296.453 231.971C294.554 228.029 291.628 224.671 287.982 222.247C284.335 219.823 280.102 218.423 275.727 218.194C271.352 217.965 266.996 218.915 263.116 220.945C261.241 215.941 259.316 210.848 256 206.661C252.684 202.474 247.671 199.263 242.322 199.46V244.647H298.772Z" fill="#D0FFD4"/>
<path d="M212.616 135.9H95.6685L73.8186 104.928L50.9127 136.777L24 136.344L53.0049 97.3431L183.404 97.885L212.616 135.9Z" fill="#E0E0E0"/>
<path d="M154.133 136.344V244.913H37.353V136.344H50.7353L73.8189 104.929L95.7379 135.871L154.133 136.344Z" fill="#F5F5F5"/>
<path d="M110.314 197.844H137.632V244.913H110.314V197.844Z" fill="#E0E0E0"/>
<path d="M50.9128 196.514H93.9415V223.122H50.9128V196.514Z" fill="#E0E0E0"/>
<path d="M81.023 196.514H82.0099V223.368H81.023V196.514Z" fill="#EBEBEB"/>
<path d="M63.1304 196.514H64.1173V223.368H63.1304V196.514Z" fill="#EBEBEB"/>
<path d="M63.6243 210.257H81.5168V211.242H63.6243V210.257Z" fill="#EBEBEB"/>
<path d="M50.9128 143.269H93.9415V169.877H50.9128V143.269Z" fill="#E0E0E0"/>
<path d="M81.023 143.259H82.0099V170.113H81.023V143.259Z" fill="#EBEBEB"/>
<path d="M63.1304 143.259H64.1173V170.113H63.1304V143.259Z" fill="#EBEBEB"/>
<path d="M63.6243 157.011H81.5168V157.997H63.6243V157.011Z" fill="#EBEBEB"/>
<path d="M113.166 143.506H140.306V169.158H113.166V143.506Z" fill="#E0E0E0"/>
<path d="M154.123 136.344H201.523V244.903H154.123V136.344Z" fill="#E0E0E0"/>
<path d="M126.243 143.506H127.23V169.158H126.243V143.506Z" fill="#EBEBEB"/>
<path d="M113.166 156.47H140.306V157.455H113.166V156.47Z" fill="#EBEBEB"/>
<path d="M73.8779 131.398C70.7002 131.398 68.1242 128.827 68.1242 125.655C68.1242 122.483 70.7002 119.912 73.8779 119.912C77.0555 119.912 79.6315 122.483 79.6315 125.655C79.6315 128.827 77.0555 131.398 73.8779 131.398Z" fill="#E0E0E0"/>
<path d="M114.923 118.612L107.66 109.667V88.1622H122.868V118.779L114.923 118.612Z" fill="#F5F5F5"/>
<path d="M114.923 118.612V88.1622H107.659V109.667L114.923 118.612Z" fill="#EBEBEB"/>
<path d="M106.643 85H124.565V88.1622H106.643V85Z" fill="#EBEBEB"/>
<path d="M154.133 183.836H242.322V244.913H154.133V183.836Z" fill="#F5F5F5"/>
<path d="M187.105 183.836H242.322V244.913H187.105V183.836Z" fill="#E0E0E0"/>
<path d="M195.326 203.528H231.436V244.804H195.326V203.528Z" fill="#F5F5F5"/>
<path d="M158.988 203.361H182.249V209.272H158.988V203.361Z" fill="#EBEBEB"/>
<path d="M212.616 135.901V139.043H95.7376V135.871L212.616 135.901Z" fill="#EBEBEB"/>
<path d="M95.7376 139.043L73.8778 108.416L73.8186 104.929L95.6685 135.901L95.7376 139.043Z" fill="#EBEBEB"/>
<path d="M24.5625 136.344H50.735V138.373H24.5625V136.344Z" fill="#EBEBEB"/>
<path d="M119.63 190.624H129.292V194.288H119.63V190.624Z" fill="#E0E0E0"/>
<path d="M394.736 47.9C385.804 35.6914 372.828 30 359.281 30C359.281 30 326.111 30 316.288 59.5274C312.66 70.4093 313.466 82.2251 317.86 92.8224C319.509 96.851 321.588 100.693 324.059 104.281C332.625 116.574 359.281 150.178 359.281 150.178H365.077C372.502 139.901 391.249 105.752 396.86 94.8184C403.906 81.0788 404.986 61.9242 394.736 47.9ZM364.815 102.522C359.21 102.523 353.731 100.871 349.07 97.7749C344.41 94.6791 340.777 90.2786 338.632 85.1298C336.487 79.981 335.925 74.3153 337.018 68.8492C338.112 63.3831 340.811 58.3621 344.774 54.4213C348.737 50.4805 353.787 47.7968 359.284 46.7097C364.781 45.6227 370.479 46.181 375.657 48.3141C380.835 50.4472 385.26 54.0593 388.374 58.6936C391.487 63.3278 393.149 68.7761 393.148 74.3492C393.147 81.8207 390.161 88.986 384.848 94.2691C379.535 99.5523 372.329 102.521 364.815 102.522Z" fill="#71D281"/>
<path d="M400.568 48.1325C391.64 35.9239 378.661 30.2325 365.113 30.2325C365.113 30.2325 331.943 30.2325 322.12 59.7599C318.492 70.6418 319.299 82.4575 323.696 93.0549C325.344 97.0837 327.421 100.925 329.892 104.514C338.457 116.815 365.113 150.406 365.113 150.406C365.113 150.406 395.913 108.277 402.693 95.0509C409.738 81.3032 410.823 62.1567 400.568 48.1325ZM364.843 102.754C359.239 102.754 353.76 101.102 349.1 98.0057C344.44 94.9097 340.808 90.5091 338.663 85.3604C336.519 80.2118 335.957 74.5464 337.051 69.0807C338.144 63.6149 340.843 58.5943 344.806 54.6538C348.769 50.7132 353.818 48.0296 359.315 46.9424C364.812 45.8552 370.509 46.4132 375.687 48.5458C380.865 50.6785 385.291 54.2899 388.404 58.9236C391.518 63.5572 393.18 69.0049 393.18 74.5777C393.208 78.2856 392.494 81.9621 391.08 85.3932C389.665 88.8242 387.579 91.9414 384.942 94.5634C382.305 97.1854 379.171 99.2599 375.72 100.666C372.269 102.072 368.572 102.782 364.843 102.754Z" fill="#8EEE9E"/>
<path d="M364.815 46.1723C358.959 46.1723 353.247 47.9761 348.465 51.3358C343.682 54.6955 340.063 59.446 338.107 64.934C340.295 60.1304 344.005 56.1714 348.669 53.6621C353.334 51.1528 358.697 50.2313 363.938 51.0385C369.178 51.8457 374.009 54.3371 377.692 58.1319C381.375 61.9268 383.706 66.8163 384.33 72.0531C384.955 77.2899 383.837 82.5859 381.149 87.1316C378.461 91.6774 374.349 95.2227 369.443 97.2258C364.537 99.2289 359.107 99.5796 353.981 98.2241C348.856 96.8687 344.318 93.8818 341.061 89.7199C343.74 93.8097 347.441 97.1374 351.803 99.3769C356.164 101.616 361.036 102.691 365.94 102.495C370.845 102.299 375.614 100.84 379.78 98.2595C383.947 95.6794 387.368 92.0672 389.708 87.7769C392.048 83.4866 393.228 78.6653 393.13 73.7855C393.033 68.9057 391.662 64.1348 389.152 59.9403C386.642 55.7458 383.08 52.2715 378.814 49.858C374.547 47.4444 369.724 46.1744 364.815 46.1723Z" fill="#71D281"/>
</g>
</svg>
