<svg width="20" height="20" viewBox="0 0 20 20" fill="none" xmlns="http://www.w3.org/2000/svg">
<g clip-path="url(#clip0_1_3361)">
<path d="M10 0.625C8.1458 0.625 6.33324 1.17483 4.79153 2.20497C3.24982 3.23511 2.04821 4.69929 1.33863 6.41234C0.629062 8.1254 0.443406 10.0104 0.805142 11.829C1.16688 13.6475 2.05976 15.318 3.37088 16.6291C4.682 17.9402 6.35246 18.8331 8.17103 19.1949C9.98961 19.5566 11.8746 19.3709 13.5877 18.6614C15.3007 17.9518 16.7649 16.7502 17.795 15.2085C18.8252 13.6668 19.375 11.8542 19.375 10C19.3722 7.51446 18.3836 5.13152 16.626 3.37398C14.8685 1.61644 12.4855 0.627812 10 0.625ZM10 18.75C8.26942 18.75 6.57769 18.2368 5.13876 17.2754C3.69983 16.3139 2.57833 14.9473 1.91606 13.3485C1.25379 11.7496 1.08051 9.99029 1.41813 8.29296C1.75575 6.59563 2.58911 5.03652 3.81282 3.81282C5.03653 2.58911 6.59563 1.75575 8.29296 1.41813C9.9903 1.08051 11.7496 1.25379 13.3485 1.91605C14.9473 2.57832 16.3139 3.69983 17.2754 5.13876C18.2368 6.57769 18.75 8.26941 18.75 10C18.7474 12.3198 17.8247 14.5439 16.1843 16.1843C14.5439 17.8247 12.3199 18.7474 10 18.75Z" fill="#78C081"/>
<path d="M10 3.125C8.64026 3.125 7.31105 3.52821 6.18046 4.28365C5.04987 5.03908 4.16868 6.11281 3.64833 7.36905C3.12798 8.62529 2.99183 10.0076 3.2571 11.3412C3.52238 12.6749 4.17716 13.8999 5.13864 14.8614C6.10013 15.8228 7.32514 16.4776 8.65876 16.7429C9.99238 17.0082 11.3747 16.872 12.631 16.3517C13.8872 15.8313 14.9609 14.9501 15.7164 13.8195C16.4718 12.689 16.875 11.3597 16.875 10C16.873 8.17727 16.148 6.42977 14.8591 5.14091C13.5702 3.85204 11.8227 3.12705 10 3.125ZM10 16.25C8.76387 16.25 7.5555 15.8834 6.52769 15.1967C5.49988 14.5099 4.6988 13.5338 4.22576 12.3918C3.75271 11.2497 3.62894 9.99307 3.8701 8.78069C4.11125 7.5683 4.70651 6.45466 5.58059 5.58058C6.45466 4.7065 7.56831 4.11125 8.78069 3.87009C9.99307 3.62893 11.2497 3.75271 12.3918 4.22575C13.5338 4.6988 14.5099 5.49988 15.1967 6.52769C15.8834 7.55549 16.25 8.76387 16.25 10C16.2481 11.657 15.589 13.2456 14.4173 14.4173C13.2456 15.589 11.657 16.2481 10 16.25Z" fill="#78C081"/>
<path d="M11.4804 8.85362C11.4244 8.78123 11.3633 8.71301 11.2974 8.64949C11.4029 8.34037 11.5487 8.04646 11.7308 7.77533C11.8292 7.6328 11.9187 7.50768 11.9989 7.39537C12.3777 6.86515 12.6062 6.54499 12.6062 5.99615C12.6062 5.2039 11.6702 4.34896 10.1582 4.34896C9.73087 4.32689 9.30408 4.40262 8.91038 4.57039C8.51669 4.73817 8.16646 4.99355 7.88637 5.31712C7.65463 5.57078 7.49688 5.88314 7.43027 6.2202C7.36366 6.55727 7.39074 6.90615 7.50856 7.2289L8.26609 9.28868C8.23138 9.37414 8.2031 9.46207 8.18147 9.55174C7.86101 9.61482 7.53367 9.6356 7.20781 9.61355C7.03509 9.59952 6.88206 9.58471 6.74456 9.57127C6.09622 9.50843 5.70469 9.47027 5.22953 9.74493C5.03441 9.87562 4.87364 10.0514 4.76081 10.2573C4.64797 10.4633 4.58639 10.6934 4.58128 10.9282C4.54356 11.547 4.69932 12.1622 5.02697 12.6886C5.22156 13.0698 5.50055 13.4015 5.84271 13.6586C6.18487 13.9157 6.58118 14.0914 7.00147 14.1722C7.13497 14.1975 7.27055 14.2104 7.40644 14.2106C7.68097 14.2141 7.95278 14.1559 8.20187 14.0404C8.45097 13.925 8.67101 13.7551 8.84581 13.5434L10.2521 11.8562C10.3433 11.8441 10.4336 11.8252 10.522 11.7998C10.737 12.0451 10.9184 12.318 11.0613 12.6113C11.1356 12.7678 11.1992 12.9078 11.2563 13.0335C11.5262 13.6266 11.689 13.9846 12.1643 14.2591C12.3454 14.3599 12.5499 14.4111 12.7572 14.4077C13.4226 14.4077 14.2466 13.9469 14.8149 12.9627C15.0477 12.6036 15.1955 12.1961 15.2471 11.7712C15.2986 11.3463 15.2525 10.9153 15.1123 10.5109C15.0085 10.1834 14.8169 9.89063 14.5583 9.66442C14.2997 9.43822 13.9841 9.28726 13.6457 9.22796L11.4804 8.85362ZM10 11.2501C9.7528 11.2501 9.51113 11.1767 9.30557 11.0394C9.10001 10.902 8.93979 10.7068 8.84518 10.4784C8.75057 10.25 8.72582 9.99867 8.77405 9.75619C8.82228 9.51371 8.94133 9.29099 9.11615 9.11617C9.29096 8.94135 9.51369 8.8223 9.75617 8.77407C9.99864 8.72584 10.25 8.75059 10.4784 8.8452C10.7068 8.93981 10.902 9.10003 11.0394 9.30559C11.1767 9.51115 11.25 9.75283 11.25 10.0001C11.2497 10.3315 11.1178 10.6492 10.8835 10.8835C10.6492 11.1179 10.3314 11.2497 10 11.2501ZM8.36062 5.72408C8.58233 5.46916 8.85989 5.26886 9.17169 5.13877C9.48349 5.00868 9.8211 4.95233 10.1582 4.97408C11.3321 4.97408 11.9812 5.57849 11.9812 5.99627C11.9812 6.32999 11.8714 6.49874 11.4903 7.03218C11.4084 7.14693 11.3172 7.27465 11.2166 7.42037C11.0331 7.69184 10.8809 7.98329 10.7632 8.28911C10.4222 8.13577 10.0429 8.08853 9.67469 8.15351C9.30647 8.2185 8.9663 8.39271 8.69837 8.65352L8.09525 7.01324C8.0175 6.79462 8.00113 6.55887 8.04791 6.3316C8.0947 6.10433 8.20285 5.89422 8.36062 5.72408ZM8.36565 13.1432C8.2152 13.3198 8.01925 13.4518 7.79907 13.5249C7.5789 13.598 7.34291 13.6094 7.11672 13.5578C6.78506 13.4933 6.47278 13.3531 6.2042 13.1481C5.93562 12.9431 5.71799 12.6789 5.56828 12.376C5.30944 11.9587 5.1824 11.4731 5.20375 10.9826C5.20393 10.8485 5.23446 10.7162 5.29304 10.5956C5.35163 10.4751 5.43675 10.3693 5.54203 10.2863C5.83087 10.1191 6.03212 10.1302 6.68428 10.1934C6.82469 10.207 6.98094 10.2222 7.15747 10.2364C7.48391 10.2599 7.81198 10.2461 8.13528 10.1951C8.17487 10.5666 8.32435 10.9179 8.56463 11.204C8.8049 11.4901 9.12504 11.6981 9.48412 11.8013L8.36565 13.1432ZM14.5227 10.7182C14.6327 11.0377 14.6674 11.3783 14.6242 11.7134C14.581 12.0485 14.461 12.3691 14.2736 12.6503C13.6869 13.6665 12.8383 13.9266 12.4768 13.7178C12.1878 13.551 12.0967 13.3716 11.8253 12.7748C11.7668 12.6463 11.7018 12.5035 11.626 12.3435C11.4824 12.0486 11.3056 11.7709 11.0992 11.5159C11.4034 11.2981 11.6347 10.9935 11.7628 10.642C11.8909 10.2905 11.9098 9.90852 11.8172 9.54608L13.539 9.84383C13.7672 9.88578 13.9796 9.98945 14.153 10.1436C14.3264 10.2977 14.4543 10.4964 14.5227 10.7181V10.7182Z" fill="#78C081"/>
<path d="M10 2.5C10.1726 2.5 10.3125 2.36009 10.3125 2.1875C10.3125 2.01491 10.1726 1.875 10 1.875C9.82741 1.875 9.6875 2.01491 9.6875 2.1875C9.6875 2.36009 9.82741 2.5 10 2.5Z" fill="#78C081"/>
<path d="M10 18.125C10.1726 18.125 10.3125 17.9851 10.3125 17.8125C10.3125 17.6399 10.1726 17.5 10 17.5C9.82741 17.5 9.6875 17.6399 9.6875 17.8125C9.6875 17.9851 9.82741 18.125 10 18.125Z" fill="#78C081"/>
<path d="M2.1875 10.3125C2.36009 10.3125 2.5 10.1726 2.5 10C2.5 9.82741 2.36009 9.6875 2.1875 9.6875C2.01491 9.6875 1.875 9.82741 1.875 10C1.875 10.1726 2.01491 10.3125 2.1875 10.3125Z" fill="#78C081"/>
<path d="M17.8125 10.3125C17.9851 10.3125 18.125 10.1726 18.125 10C18.125 9.82741 17.9851 9.6875 17.8125 9.6875C17.6399 9.6875 17.5 9.82741 17.5 10C17.5 10.1726 17.6399 10.3125 17.8125 10.3125Z" fill="#78C081"/>
</g>
<defs>
<clipPath id="clip0_1_3361">
<rect width="20" height="20" fill="white"/>
</clipPath>
</defs>
</svg>
