<svg width="20" height="20" viewBox="0 0 20 20" fill="none" xmlns="http://www.w3.org/2000/svg">
<g clip-path="url(#clip0_1_3382)">
<path d="M12.5641 0.90918C14.0875 0.90918 19.0909 9.2048 19.0909 12.3924C19.0909 16.0919 16.1688 19.091 12.5641 19.091C11.7141 19.091 10.8858 18.9239 10.1141 18.6029C9.87546 18.5037 9.76041 18.2247 9.85712 17.9798C9.95382 17.7349 10.2257 17.6168 10.4643 17.716C11.1252 17.9909 11.8346 18.1341 12.5641 18.1341C15.6538 18.1341 18.1585 15.5248 18.1585 12.3924C18.055 9.05725 13.4685 2.38859 12.5278 1.87329C11.5602 2.42082 8.57094 7.41649 7.81945 9.24719C7.71603 9.48919 7.44105 9.59933 7.20525 9.49319C6.96946 9.38705 6.86215 9.10483 6.96557 8.86283C7.81945 6.63793 11.2352 1.02704 12.5641 0.90918ZM10.2331 15.7417C10.4906 15.7417 10.6993 15.9559 10.6993 16.2202C10.6993 16.4656 10.517 16.6987 10.2331 16.6987C9.51654 16.6987 8.96349 17.6556 7.90337 17.6556C6.84325 17.6556 6.30461 16.6987 5.57112 16.6987C4.83763 16.6986 4.31318 17.6556 3.24012 17.6556C2.49452 17.6556 1.76349 17.2805 1.04902 16.5619C0.865125 16.377 0.862134 16.074 1.04234 15.8853C1.22255 15.6966 1.51772 15.6935 1.70162 15.8784C2.25582 16.4358 2.76802 16.6987 3.24012 16.6987C3.89381 16.6987 4.49156 15.7416 5.57112 15.7417C6.65068 15.7418 7.20096 16.6987 7.90087 16.6987C8.60078 16.6987 9.08962 15.7418 10.2331 15.7417ZM6.23313 12.8278C7.35581 12.8278 7.89758 13.7848 8.56867 13.7848C9.03789 13.7895 9.54793 13.5278 10.1011 12.9662C10.2841 12.7803 10.5793 12.782 10.7604 12.9698C10.9414 13.1577 10.9398 13.4606 10.7568 13.6465C10.0413 14.3729 9.30907 14.7417 8.55959 14.7417C7.4806 14.7417 6.97235 13.7848 6.23313 13.7848C5.4939 13.7848 4.97154 14.7418 3.90337 14.7417C2.8352 14.7416 2.30779 13.7848 1.57112 13.7848C1.31365 13.7848 1.10492 13.5706 1.10492 13.3063C1.10492 13.0421 1.31365 12.8278 1.57112 12.8278C2.68709 12.8279 3.21745 13.7847 3.90088 13.7848C4.5843 13.7848 5.11045 12.8279 6.23313 12.8278ZM10.2331 10.0001C10.4906 10.0001 10.6993 10.2143 10.6993 10.4786C10.6993 10.7239 10.5025 10.957 10.2331 10.957C9.45936 10.957 8.99462 11.911 7.90337 11.914C6.81212 11.9169 6.31513 10.957 5.57112 10.957C4.82712 10.957 4.3342 11.914 3.24012 11.914C2.49449 11.914 1.76349 11.5389 1.04902 10.8203C0.865125 10.6353 0.862134 10.3324 1.04234 10.1437C1.22255 9.95494 1.51772 9.95187 1.70162 10.1368C2.25582 10.6942 2.76802 10.957 3.24012 10.957C3.91642 10.9538 4.47064 10.0001 5.57112 10.0001C6.6716 10.0001 7.20525 10.9589 7.90087 10.957C8.59649 10.9551 9.11638 10.0001 10.2331 10.0001Z" fill="#78C081"/>
</g>
<defs>
<clipPath id="clip0_1_3382">
<rect width="20" height="20" fill="white"/>
</clipPath>
</defs>
</svg>
