<svg width="20" height="14" viewBox="0 0 20 14" fill="none" xmlns="http://www.w3.org/2000/svg">
<g clip-path="url(#clip0_1_11408)">
<path d="M18.3237 8.64478H1.67624C1.40847 8.64478 1.15167 8.53546 0.962335 8.34088C0.772996 8.14629 0.666626 7.88237 0.666626 7.60718V1.70435C0.666923 1.42926 0.773388 1.16552 0.962663 0.970993C1.15194 0.77647 1.40857 0.667053 1.67624 0.666748H18.3237C18.5914 0.667053 18.848 0.77647 19.0373 0.970993C19.2265 1.16552 19.333 1.42926 19.3333 1.70435V7.60718C19.3333 7.88237 19.2269 8.14629 19.0376 8.34088C18.8482 8.53546 18.5914 8.64478 18.3237 8.64478ZM1.67624 1.4046C1.59889 1.4046 1.5247 1.43618 1.47 1.4924C1.4153 1.54861 1.38457 1.62485 1.38457 1.70435V7.60718C1.38457 7.68668 1.4153 7.76292 1.47 7.81914C1.5247 7.87535 1.59889 7.90693 1.67624 7.90693H18.3237C18.401 7.90693 18.4752 7.87535 18.5299 7.81914C18.5846 7.76292 18.6153 7.68668 18.6153 7.60718V1.70435C18.6153 1.62485 18.5846 1.54861 18.5299 1.4924C18.4752 1.43618 18.401 1.4046 18.3237 1.4046H1.67624Z" fill="#78C081"/>
<path d="M14.3185 4.12543H5.68071C5.16027 4.12458 4.6614 3.91166 4.29348 3.53337C3.92556 3.15507 3.71861 2.64227 3.71802 2.10741V1.03567C3.71802 0.937829 3.75584 0.843991 3.82316 0.774804C3.89048 0.705617 3.98179 0.666748 4.07699 0.666748C4.1722 0.666748 4.2635 0.705617 4.33083 0.774804C4.39815 0.843991 4.43597 0.937829 4.43597 1.03567V2.10741C4.43632 2.44682 4.56767 2.77222 4.8012 3.01222C5.03473 3.25222 5.35135 3.38721 5.68161 3.38758H14.3194C14.6495 3.38697 14.9659 3.25187 15.1993 3.0119C15.4326 2.77192 15.5638 2.44666 15.5642 2.10741V1.03567C15.5642 0.937829 15.602 0.843991 15.6693 0.774804C15.7366 0.705617 15.8279 0.666748 15.9231 0.666748C16.0184 0.666748 16.1097 0.705617 16.177 0.774804C16.2443 0.843991 16.2821 0.937829 16.2821 1.03567V2.10741C16.2815 2.64243 16.0745 3.15537 15.7063 3.53369C15.3382 3.91201 14.8391 4.12482 14.3185 4.12543Z" fill="#78C081"/>
<path d="M14.5321 2.7652H5.46798C5.37278 2.7652 5.28147 2.72633 5.21415 2.65714C5.14683 2.58795 5.10901 2.49412 5.10901 2.39627C5.10901 2.29842 5.14683 2.20459 5.21415 2.1354C5.28147 2.06621 5.37278 2.02734 5.46798 2.02734H14.5321C14.6273 2.02734 14.7186 2.06621 14.7859 2.1354C14.8532 2.20459 14.8911 2.29842 14.8911 2.39627C14.8911 2.49412 14.8532 2.58795 14.7859 2.65714C14.7186 2.72633 14.6273 2.7652 14.5321 2.7652Z" fill="#78C081"/>
<path d="M15.7997 8.64482C15.7045 8.64482 15.6132 8.60595 15.5459 8.53676C15.4786 8.46758 15.4408 8.37374 15.4408 8.27589V8.11449C15.4405 7.84887 15.3377 7.59422 15.1549 7.4064C14.9722 7.21858 14.7244 7.11293 14.4659 7.11262H5.53532C5.27687 7.11293 5.02908 7.21858 4.84633 7.4064C4.66358 7.59422 4.56077 7.84887 4.56048 8.11449V8.27589C4.56048 8.37374 4.52266 8.46758 4.45534 8.53676C4.38802 8.60595 4.29671 8.64482 4.2015 8.64482C4.1063 8.64482 4.01499 8.60595 3.94767 8.53676C3.88035 8.46758 3.84253 8.37374 3.84253 8.27589V8.11449C3.84306 7.65328 4.02159 7.21111 4.33894 6.88501C4.65629 6.5589 5.08655 6.37549 5.53532 6.375H14.467C14.9159 6.37549 15.3461 6.55894 15.6635 6.88509C15.9809 7.21125 16.1594 7.65347 16.1598 8.11472V8.27612C16.1598 8.32465 16.1505 8.37269 16.1323 8.4175C16.1142 8.46231 16.0877 8.50301 16.0542 8.53725C16.0208 8.5715 15.9811 8.59863 15.9374 8.61709C15.8937 8.63555 15.847 8.64497 15.7997 8.64482Z" fill="#78C081"/>
<path d="M3.27768 13.1758C3.18247 13.1758 3.09116 13.1369 3.02384 13.0677C2.95652 12.9985 2.9187 12.9047 2.9187 12.8068C2.9187 12.709 2.95652 12.6151 3.02384 12.546C3.09116 12.4768 3.18247 12.4379 3.27768 12.4379C3.92597 12.4369 4.54745 12.1718 5.00587 11.7007C5.46428 11.2296 5.72224 10.5909 5.72319 9.92459C5.72319 9.82675 5.76101 9.73291 5.82833 9.66372C5.89565 9.59453 5.98696 9.55566 6.08216 9.55566C6.17737 9.55566 6.26867 9.59453 6.336 9.66372C6.40332 9.73291 6.44114 9.82675 6.44114 9.92459C6.44203 11.7169 5.02252 13.1758 3.27768 13.1758Z" fill="#78C081"/>
<path d="M16.7223 13.1758C14.9775 13.1758 13.5588 11.7169 13.5588 9.92459C13.5588 9.82675 13.5967 9.73291 13.664 9.66372C13.7313 9.59453 13.8226 9.55566 13.9178 9.55566C14.013 9.55566 14.1043 9.59453 14.1716 9.66372C14.239 9.73291 14.2768 9.82675 14.2768 9.92459C14.2777 10.5909 14.5357 11.2296 14.9941 11.7007C15.4525 12.1718 16.074 12.4369 16.7223 12.4379C16.8175 12.4379 16.9088 12.4768 16.9761 12.546C17.0435 12.6151 17.0813 12.709 17.0813 12.8068C17.0813 12.9047 17.0435 12.9985 16.9761 13.0677C16.9088 13.1369 16.8175 13.1758 16.7223 13.1758Z" fill="#78C081"/>
<path d="M10.0001 13.3335C9.90488 13.3335 9.81357 13.2946 9.74625 13.2254C9.67893 13.1562 9.64111 13.0624 9.64111 12.9646V9.76712C9.64111 9.66927 9.67893 9.57544 9.74625 9.50625C9.81357 9.43706 9.90488 9.39819 10.0001 9.39819C10.0953 9.39819 10.1866 9.43706 10.2539 9.50625C10.3212 9.57544 10.3591 9.66927 10.3591 9.76712V12.9646C10.3591 13.0624 10.3212 13.1562 10.2539 13.2254C10.1866 13.2946 10.0953 13.3335 10.0001 13.3335Z" fill="#78C081"/>
</g>
<defs>
<clipPath id="clip0_1_11408">
<rect width="20" height="14" fill="white"/>
</clipPath>
</defs>
</svg>
